  0
SECTION
  2
HEADER
  9
$ACADVER
  1
AC1015
  9
$ACADMAINTVER
 70
     6
  9
$DWGCODEPAGE
  3
ANSI_1252
  9
$INSBASE
 10
0.0
 20
0.0
 30
0.0
  9
$EXTMIN
 10
-801.5905266995
 20
378.93244
 30
0.0
  9
$EXTMAX
 10
-145.9999999984
 20
828.93244
 30
0.0
  9
$LIMMIN
 10
0.0
 20
0.0
  9
$LIMMAX
 10
420.0
 20
297.0
  9
$ORTHOMODE
 70
     0
  9
$REGENMODE
 70
     1
  9
$FILLMODE
 70
     1
  9
$QTEXTMODE
 70
     0
  9
$MIRRTEXT
 70
     1
  9
$LTSCALE
 40
1.0
  9
$ATTMODE
 70
     1
  9
$TEXTSIZE
 40
3.5
  9
$TRACEWID
 40
1.0
  9
$TEXTSTYLE
  7
Standard
  9
$CLAYER
  8
0
  9
$CELTYPE
  6
ByLayer
  9
$CECOLOR
 62
   256
  9
$CELTSCALE
 40
1.0
  9
$DISPSILH
 70
     0
  9
$DIMSCALE
 40
1.0
  9
$DIMASZ
 40
3.556
  9
$DIMEXO
 40
0.0
  9
$DIMDLI
 40
3.75
  9
$DIMRND
 40
0.0
  9
$DIMDLE
 40
0.0
  9
$DIMEXE
 40
1.0
  9
$DIMTP
 40
0.0
  9
$DIMTM
 40
0.0
  9
$DIMTXT
 40
3.5
  9
$DIMCEN
 40
2.5
  9
$DIMTSZ
 40
0.0
  9
$DIMTOL
 70
     0
  9
$DIMLIM
 70
     0
  9
$DIMTIH
 70
     1
  9
$DIMTOH
 70
     1
  9
$DIMSE1
 70
     0
  9
$DIMSE2
 70
     0
  9
$DIMTAD
 70
     1
  9
$DIMZIN
 70
     1
  9
$DIMBLK
  1

  9
$DIMASO
 70
     1
  9
$DIMSHO
 70
     1
  9
$DIMPOST
  1

  9
$DIMAPOST
  1

  9
$DIMALT
 70
     0
  9
$DIMALTD
 70
     3
  9
$DIMALTF
 40
0.0393700787
  9
$DIMLFAC
 40
1.0
  9
$DIMTOFL
 70
     1
  9
$DIMTVP
 40
0.0
  9
$DIMTIX
 70
     0
  9
$DIMSOXD
 70
     0
  9
$DIMSAH
 70
     0
  9
$DIMBLK1
  1

  9
$DIMBLK2
  1

  9
$DIMSTYLE
  2
ISO-25
  9
$DIMCLRD
 70
     0
  9
$DIMCLRE
 70
     0
  9
$DIMCLRT
 70
     0
  9
$DIMTFAC
 40
1.0
  9
$DIMGAP
 40
1.524
  9
$DIMJUST
 70
     0
  9
$DIMSD1
 70
     0
  9
$DIMSD2
 70
     0
  9
$DIMTOLJ
 70
     0
  9
$DIMTZIN
 70
     1
  9
$DIMALTZ
 70
     0
  9
$DIMALTTZ
 70
     0
  9
$DIMUPT
 70
     0
  9
$DIMDEC
 70
     2
  9
$DIMTDEC
 70
     2
  9
$DIMALTU
 70
     2
  9
$DIMALTTD
 70
     3
  9
$DIMTXSTY
  7
Standard
  9
$DIMAUNIT
 70
     0
  9
$DIMADEC
 70
     0
  9
$DIMALTRND
 40
0.0
  9
$DIMAZIN
 70
     0
  9
$DIMDSEP
 70
    44
  9
$DIMATFIT
 70
     3
  9
$DIMFRAC
 70
     0
  9
$DIMLDRBLK
  1

  9
$DIMLUNIT
 70
     2
  9
$DIMLWD
 70
    -2
  9
$DIMLWE
 70
    -2
  9
$DIMTMOVE
 70
     0
  9
$LUNITS
 70
     2
  9
$LUPREC
 70
     2
  9
$SKETCHINC
 40
1.0
  9
$FILLETRAD
 40
0.0
  9
$AUNITS
 70
     0
  9
$AUPREC
 70
     0
  9
$MENU
  1
.
  9
$ELEVATION
 40
0.0
  9
$PELEVATION
 40
0.0
  9
$THICKNESS
 40
0.0
  9
$LIMCHECK
 70
     0
  9
$CHAMFERA
 40
0.0
  9
$CHAMFERB
 40
0.0
  9
$CHAMFERC
 40
0.0
  9
$CHAMFERD
 40
0.0
  9
$SKPOLY
 70
     0
  9
$TDCREATE
 40
2460264.519044838
  9
$TDUCREATE
 40
2460264.477378171
  9
$TDUPDATE
 40
2460264.519114317
  9
$TDUUPDATE
 40
2460264.47744765
  9
$TDINDWG
 40
0.0000000116
  9
$TDUSRTIMER
 40
0.0000000116
  9
$USRTIMER
 70
     1
  9
$ANGBASE
 50
0.0
  9
$ANGDIR
 70
     0
  9
$PDMODE
 70
     0
  9
$PDSIZE
 40
-1.0
  9
$PLINEWID
 40
0.0
  9
$SPLFRAME
 70
     0
  9
$SPLINETYPE
 70
     6
  9
$SPLINESEGS
 70
     8
  9
$HANDSEED
  5
130
  9
$SURFTAB1
 70
     6
  9
$SURFTAB2
 70
     6
  9
$SURFTYPE
 70
     6
  9
$SURFU
 70
     6
  9
$SURFV
 70
     6
  9
$UCSBASE
  2

  9
$UCSNAME
  2

  9
$UCSORG
 10
0.0
 20
0.0
 30
0.0
  9
$UCSXDIR
 10
1.0
 20
0.0
 30
0.0
  9
$UCSYDIR
 10
0.0
 20
1.0
 30
0.0
  9
$UCSORTHOREF
  2

  9
$UCSORTHOVIEW
 70
     0
  9
$UCSORGTOP
 10
0.0
 20
0.0
 30
0.0
  9
$UCSORGBOTTOM
 10
0.0
 20
0.0
 30
0.0
  9
$UCSORGLEFT
 10
0.0
 20
0.0
 30
0.0
  9
$UCSORGRIGHT
 10
0.0
 20
0.0
 30
0.0
  9
$UCSORGFRONT
 10
0.0
 20
0.0
 30
0.0
  9
$UCSORGBACK
 10
0.0
 20
0.0
 30
0.0
  9
$PUCSBASE
  2

  9
$PUCSNAME
  2

  9
$PUCSORG
 10
0.0
 20
0.0
 30
0.0
  9
$PUCSXDIR
 10
1.0
 20
0.0
 30
0.0
  9
$PUCSYDIR
 10
0.0
 20
1.0
 30
0.0
  9
$PUCSORTHOREF
  2

  9
$PUCSORTHOVIEW
 70
     0
  9
$PUCSORGTOP
 10
0.0
 20
0.0
 30
0.0
  9
$PUCSORGBOTTOM
 10
0.0
 20
0.0
 30
0.0
  9
$PUCSORGLEFT
 10
0.0
 20
0.0
 30
0.0
  9
$PUCSORGRIGHT
 10
0.0
 20
0.0
 30
0.0
  9
$PUCSORGFRONT
 10
0.0
 20
0.0
 30
0.0
  9
$PUCSORGBACK
 10
0.0
 20
0.0
 30
0.0
  9
$USERI1
 70
     0
  9
$USERI2
 70
     0
  9
$USERI3
 70
     0
  9
$USERI4
 70
     0
  9
$USERI5
 70
     0
  9
$USERR1
 40
0.0
  9
$USERR2
 40
0.0
  9
$USERR3
 40
0.0
  9
$USERR4
 40
0.0
  9
$USERR5
 40
0.0
  9
$WORLDVIEW
 70
     1
  9
$SHADEDGE
 70
     3
  9
$SHADEDIF
 70
    70
  9
$TILEMODE
 70
     1
  9
$MAXACTVP
 70
    64
  9
$PINSBASE
 10
0.0
 20
0.0
 30
0.0
  9
$PLIMCHECK
 70
     0
  9
$PEXTMIN
 10
1.0000000000E+20
 20
1.0000000000E+20
 30
1.0000000000E+20
  9
$PEXTMAX
 10
-1.0000000000E+20
 20
-1.0000000000E+20
 30
-1.0000000000E+20
  9
$PLIMMIN
 10
0.0
 20
0.0
  9
$PLIMMAX
 10
420.0
 20
297.0
  9
$UNITMODE
 70
     0
  9
$VISRETAIN
 70
     1
  9
$PLINEGEN
 70
     0
  9
$PSLTSCALE
 70
     1
  9
$TREEDEPTH
 70
  3020
  9
$CMLSTYLE
  2
Standard
  9
$CMLJUST
 70
     0
  9
$CMLSCALE
 40
20.0
  9
$PROXYGRAPHICS
 70
     1
  9
$MEASUREMENT
 70
     1
  9
$CELWEIGHT
370
    -1
  9
$ENDCAPS
280
     0
  9
$JOINSTYLE
280
     0
  9
$LWDISPLAY
290
     1
  9
$INSUNITS
 70
     4
  9
$HYPERLINKBASE
  1

  9
$STYLESHEET
  1

  9
$XEDIT
290
     1
  9
$CEPSNTYPE
380
     0
  9
$PSTYLEMODE
290
     1
  9
$FINGERPRINTGUID
  2
{8e77b594-b8eb-48e6-8c6b-496e0d2a231b}
  9
$VERSIONGUID
  2
{FAEB1C32-E019-11D5-929B-00C0DF256EC4}
  9
$EXTNAMES
290
     1
  9
$PSVPSCALE
 40
0.0
  9
$OLESTARTUP
290
     0
  0
ENDSEC
  0
SECTION
  2
CLASSES
  0
CLASS
  1
ACDBDICTIONARYWDFLT
  2
AcDbDictionaryWithDefault
  3
ObjectDBX Classes
 90
        0
280
     0
281
     0
  0
CLASS
  1
VISUALSTYLE
  2
AcDbVisualStyle
  3
ObjectDBX Classes
 90
     4095
280
     0
281
     0
  0
CLASS
  1
MATERIAL
  2
AcDbMaterial
  3
ObjectDBX Classes
 90
     1153
280
     0
281
     0
  0
CLASS
  1
SCALE
  2
AcDbScale
  3
ObjectDBX Classes
 90
     1153
280
     0
281
     0
  0
CLASS
  1
TABLESTYLE
  2
AcDbTableStyle
  3
ObjectDBX Classes
 90
     4095
280
     0
281
     0
  0
CLASS
  1
MLEADERSTYLE
  2
AcDbMLeaderStyle
  3
ACDB_MLEADERSTYLE_CLASS
 90
     4095
280
     0
281
     0
  0
CLASS
  1
SUN
  2
AcDbSun
  3
SCENEOE
 90
     1153
280
     0
281
     0
  0
CLASS
  1
ACDBPLACEHOLDER
  2
AcDbPlaceHolder
  3
ObjectDBX Classes
 90
        0
280
     0
281
     0
  0
CLASS
  1
LAYOUT
  2
AcDbLayout
  3
ObjectDBX Classes
 90
        0
280
     0
281
     0
  0
ENDSEC
  0
SECTION
  2
TABLES
  0
TABLE
  2
VPORT
  5
8
330
0
100
AcDbSymbolTable
 70
     1
  0
VPORT
  5
29
330
8
100
AcDbSymbolTableRecord
100
AcDbViewportTableRecord
  2
*Active
 70
     0
 10
0.0
 20
0.0
 11
1.0
 21
1.0
 12
-473.7952633489
 22
603.93244
 13
0.0
 23
0.0
 14
10.0
 24
10.0
 15
10.0
 25
10.0
 16
0.0
 26
0.0
 36
1.0
 17
0.0
 27
0.0
 37
0.0
 40
459.0
 41
1.4568678371
 42
50.0
 43
0.0
 44
0.0
 50
0.0
 51
0.0
 71
     0
 72
   100
 73
     1
 74
     3
 75
     0
 76
     0
 77
     0
 78
     0
281
     0
 65
     1
110
0.0
120
0.0
130
0.0
111
1.0
121
0.0
131
0.0
112
0.0
122
1.0
132
0.0
 79
     0
146
0.0
  0
ENDTAB
  0
TABLE
  2
LTYPE
  5
5
330
0
100
AcDbSymbolTable
 70
     6
  0
LTYPE
  5
14
330
5
100
AcDbSymbolTableRecord
100
AcDbLinetypeTableRecord
  2
ByBlock
 70
     0
  3

 72
    65
 73
     0
 40
0.0
  0
LTYPE
  5
15
330
5
100
AcDbSymbolTableRecord
100
AcDbLinetypeTableRecord
  2
ByLayer
 70
     0
  3

 72
    65
 73
     0
 40
0.0
  0
LTYPE
  5
16
330
5
100
AcDbSymbolTableRecord
100
AcDbLinetypeTableRecord
  2
Continuous
 70
     0
  3
Solid line
 72
    65
 73
     0
 40
0.0
  0
LTYPE
  5
5E
330
5
100
AcDbSymbolTableRecord
100
AcDbLinetypeTableRecord
  2
HIDDEN
 70
     0
  3
Hidden __ __ __ __ __ __ __ __ __ __ __ __ __ __
 72
    65
 73
     2
 40
1.905
 49
1.27
 74
     0
 49
-0.635
 74
     0
  0
LTYPE
  5
5F
330
5
100
AcDbSymbolTableRecord
100
AcDbLinetypeTableRecord
  2
PHANTOM
 70
     0
  3
Phantom ______  __  __  ______  __  __  ______
 72
    65
 73
     6
 40
12.7
 49
6.35
 74
     0
 49
-1.27
 74
     0
 49
1.27
 74
     0
 49
-1.27
 74
     0
 49
1.27
 74
     0
 49
-1.27
 74
     0
  0
LTYPE
  5
60
330
5
100
AcDbSymbolTableRecord
100
AcDbLinetypeTableRecord
  2
CENTER
 70
     0
  3
Center ____ _ ____ _ ____ _ ____ _ ____ _ ____
 72
    65
 73
     4
 40
10.16
 49
6.35
 74
     0
 49
-1.27
 74
     0
 49
1.27
 74
     0
 49
-1.27
 74
     0
  0
LTYPE
  5
61
330
5
100
AcDbSymbolTableRecord
100
AcDbLinetypeTableRecord
  2
CENTERX2
 70
     0
  3
Center (2x) ________  __  ________  __  _____
 72
    65
 73
     4
 40
20.32
 49
12.7
 74
     0
 49
-2.54
 74
     0
 49
2.54
 74
     0
 49
-2.54
 74
     0
  0
LTYPE
  5
62
330
5
100
AcDbSymbolTableRecord
100
AcDbLinetypeTableRecord
  2
DOT2
 70
     0
  3
Dot (.5x) ........................................
 72
    65
 73
     2
 40
0.635
 49
0.0
 74
     0
 49
-0.635
 74
     0
  0
ENDTAB
  0
TABLE
  2
LAYER
  5
2
330
0
100
AcDbSymbolTable
 70
     1
  0
LAYER
  5
10
330
2
100
AcDbSymbolTableRecord
100
AcDbLayerTableRecord
  2
0
 70
     0
 62
     7
  6
Continuous
370
    -3
390
F
  0
ENDTAB
  0
TABLE
  2
STYLE
  5
3
330
0
100
AcDbSymbolTable
 70
     2
  0
STYLE
  5
11
330
3
100
AcDbSymbolTableRecord
100
AcDbTextStyleTableRecord
  2
Standard
 70
     0
 40
0.0
 41
1.0
 50
0.0
 71
     0
 42
3.5
  3
txt
  4

  0
STYLE
  5
12C
330
3
100
AcDbSymbolTableRecord
100
AcDbTextStyleTableRecord
  2
SLDTEXTSTYLE0
 70
     0
 40
0.0
 41
0.7
 50
0.0
 71
     0
 42
3.5
  3
TXT
  4

  0
ENDTAB
  0
TABLE
  2
VIEW
  5
6
330
0
100
AcDbSymbolTable
 70
     0
  0
ENDTAB
  0
TABLE
  2
UCS
  5
7
330
0
100
AcDbSymbolTable
 70
     0
  0
ENDTAB
  0
TABLE
  2
APPID
  5
9
330
0
100
AcDbSymbolTable
 70
     1
  0
APPID
  5
12
330
9
100
AcDbSymbolTableRecord
100
AcDbRegAppTableRecord
  2
ACAD
 70
     0
  0
ENDTAB
  0
TABLE
  2
DIMSTYLE
  5
A
330
0
100
AcDbSymbolTable
 70
     1
100
AcDbDimStyleTable
  0
DIMSTYLE
105
27
330
A
100
AcDbSymbolTableRecord
100
AcDbDimStyleTableRecord
  2
ISO-25
 70
     0
 41
2.5
 42
0.625
 43
3.75
 44
1.25
 73
     0
 74
     0
 77
     1
 78
     8
140
2.5
141
2.5
143
0.0393700787
147
0.625
171
     3
172
     1
178
     0
271
     2
272
     2
274
     3
278
    44
283
     0
284
     8
340
11
  0
ENDTAB
  0
TABLE
  2
BLOCK_RECORD
  5
1
330
0
100
AcDbSymbolTable
 70
     1
  0
BLOCK_RECORD
  5
1F
330
1
100
AcDbSymbolTableRecord
100
AcDbBlockTableRecord
  2
*Model_Space
340
22
  0
BLOCK_RECORD
  5
1B
330
1
100
AcDbSymbolTableRecord
100
AcDbBlockTableRecord
  2
*Paper_Space
340
1E
  0
BLOCK_RECORD
  5
23
330
1
100
AcDbSymbolTableRecord
100
AcDbBlockTableRecord
  2
*Paper_Space0
340
26
  0
ENDTAB
  0
ENDSEC
  0
SECTION
  2
BLOCKS
  0
BLOCK
  5
20
330
1F
100
AcDbEntity
  8
0
100
AcDbBlockBegin
  2
*Model_Space
 70
     0
 10
0.0
 20
0.0
 30
0.0
  3
*Model_Space
  1

  0
ENDBLK
  5
21
330
1F
100
AcDbEntity
  8
0
100
AcDbBlockEnd
  0
BLOCK
  5
1C
330
1B
100
AcDbEntity
 67
     1
  8
0
100
AcDbBlockBegin
  2
*Paper_Space
 70
     0
 10
0.0
 20
0.0
 30
0.0
  3
*Paper_Space
  1

  0
ENDBLK
  5
1D
330
1B
100
AcDbEntity
 67
     1
  8
0
100
AcDbBlockEnd
  0
BLOCK
  5
24
330
23
100
AcDbEntity
  8
0
100
AcDbBlockBegin
  2
*Paper_Space0
 70
     0
 10
0.0
 20
0.0
 30
0.0
  3
*Paper_Space0
  1

  0
ENDBLK
  5
25
330
23
100
AcDbEntity
  8
0
100
AcDbBlockEnd
  0
ENDSEC
  0
SECTION
  2
ENTITIES
  0
CIRCLE
  5
63
330
1F
100
AcDbEntity
  8
0
  6
Continuous
 62
     7
370
    25
100
AcDbCircle
 10
-175.9999999984
 20
403.93244
 30
0.0
 40
2.000000000000057
  0
CIRCLE
  5
64
330
1F
100
AcDbEntity
  8
0
  6
Continuous
 62
     7
370
    25
100
AcDbCircle
 10
-175.9999999984
 20
803.93244
 30
0.0
 40
1.999999999999972
  0
CIRCLE
  5
65
330
1F
100
AcDbEntity
  8
0
  6
Continuous
 62
     7
370
    25
100
AcDbCircle
 10
-235.6576381793
 20
753.93244
 30
0.0
 40
3.10000000000008
  0
CIRCLE
  5
66
330
1F
100
AcDbEntity
  8
0
  6
Continuous
 62
     7
370
    25
100
AcDbCircle
 10
-711.913487459
 20
753.93244
 30
0.0
 40
3.100000000000023
  0
LWPOLYLINE
  5
6A
330
1F
100
AcDbEntity
  8
0
  6
Continuous
 62
     7
370
    25
100
AcDbPolyline
 90
        9
 70
   128
 43
0.0
 10
-771.5904611905
 20
801.9324400014
 10
-771.5903495094
 20
801.9324400086
 10
-771.5902378283
 20
801.9324400221
 10
-771.5901261472
 20
801.9324400419
 10
-771.5900144661
 20
801.9324400678
 10
-771.589902785
 20
801.9324401
 10
-771.5897911039
 20
801.9324401385
 10
-771.5896794229
 20
801.9324401832
 10
-771.5895677418
 20
801.9324402009
  0
SPLINE
  5
75
330
1F
100
AcDbEntity
  8
0
  6
Continuous
 62
     7
370
    25
100
AcDbSpline
210
0.0
220
0.0
230
1.0
 70
    11
 71
     3
 72
    22
 73
    18
 74
     0
 42
0.00000001
 43
0.00000001
 40
0.5
 40
0.5
 40
0.5
 40
0.5
 40
0.625
 40
0.625
 40
0.75
 40
0.75
 40
0.875
 40
0.875
 40
1.0
 40
1.0
 40
1.125
 40
1.125
 40
1.25
 40
1.25
 40
1.375
 40
1.375
 40
1.5
 40
1.5
 40
1.5
 40
1.5
 10
-552.1090967283187
 20
771.8024227463801
 30
0.0
 10
-552.1087355217735
 20
771.1350338314118
 30
0.0
 10
-552.3850030356793
 20
770.4912800358433
 30
0.0
 10
-553.3401900572787
 20
769.5613388150132
 30
0.0
 10
-553.9867138749117
 20
769.3023764028313
 30
0.0
 10
-555.3228580189349
 20
769.3025026417182
 30
0.0
 10
-555.9660956803094
 20
769.5597741712062
 30
0.0
 10
-556.9278791898977
 20
770.4939384089352
 30
0.0
 10
-557.2015192302881
 20
771.13492460767
 30
0.0
 10
-557.2017443417641
 20
772.4699553923356
 30
0.0
 10
-556.9243409501593
 20
773.1136854906038
 30
0.0
 10
-555.9696974498307
 20
774.0423032532833
 30
0.0
 10
-555.3242828986265
 20
774.3020953081495
 30
0.0
 10
-553.9852823923461
 20
774.3027745555743
 30
0.0
 10
-553.3429476219842
 20
774.0459577023736
 30
0.0
 10
-552.3822177954245
 20
773.1111645868568
 30
0.0
 10
-552.1094579348639
 20
772.4698116613489
 30
0.0
 10
-552.1090967283187
 20
771.8024227463802
 30
0.0
  0
SPLINE
  5
76
330
1F
100
AcDbEntity
  8
0
  6
Continuous
 62
     7
370
    25
100
AcDbSpline
210
0.0
220
0.0
230
1.0
 70
    11
 71
     3
 72
    22
 73
    18
 74
     0
 42
0.00000001
 43
0.00000001
 40
0.5
 40
0.5
 40
0.5
 40
0.5
 40
0.625
 40
0.625
 40
0.75
 40
0.75
 40
0.875
 40
0.875
 40
1.0
 40
1.0
 40
1.125
 40
1.125
 40
1.25
 40
1.25
 40
1.375
 40
1.375
 40
1.5
 40
1.5
 40
1.5
 40
1.5
 10
-552.1090967283188
 20
701.8024227463801
 30
0.0
 10
-552.1087355217859
 20
701.1350338313182
 30
0.0
 10
-552.3850030352692
 20
700.4912800360887
 30
0.0
 10
-553.3401900576889
 20
699.5613388147682
 30
0.0
 10
-553.9867138749189
 20
699.3023764028312
 30
0.0
 10
-555.3228580189276
 20
699.3025026417181
 30
0.0
 10
-555.9660956802501
 20
699.5597741711109
 30
0.0
 10
-556.9278791899569
 20
700.4939384090301
 30
0.0
 10
-557.2015192302879
 20
701.1349246078124
 30
0.0
 10
-557.2017443417645
 20
702.4699553921924
 30
0.0
 10
-556.9243409502816
 20
703.1136854905712
 30
0.0
 10
-555.9696974497086
 20
704.0423032533154
 30
0.0
 10
-555.324282898493
 20
704.3020953081988
 30
0.0
 10
-553.9852823924798
 20
704.3027745555243
 30
0.0
 10
-553.3429476219704
 20
704.0459577022928
 30
0.0
 10
-552.3822177954379
 20
703.111164586938
 30
0.0
 10
-552.1094579348518
 20
702.4698116614418
 30
0.0
 10
-552.1090967283188
 20
701.8024227463801
 30
0.0
  0
SPLINE
  5
77
330
1F
100
AcDbEntity
  8
0
  6
Continuous
 62
     7
370
    25
100
AcDbSpline
210
0.0
220
0.0
230
1.0
 70
    11
 71
     3
 72
    22
 73
    18
 74
     0
 42
0.00000001
 43
0.00000001
 40
0.5
 40
0.5
 40
0.5
 40
0.5
 40
0.625
 40
0.625
 40
0.75
 40
0.75
 40
0.875
 40
0.875
 40
1.0
 40
1.0
 40
1.125
 40
1.125
 40
1.25
 40
1.25
 40
1.375
 40
1.375
 40
1.5
 40
1.5
 40
1.5
 40
1.5
 10
-390.3964846025779
 20
771.8024211252892
 30
0.0
 10
-390.3961273508576
 20
771.1351847266252
 30
0.0
 10
-390.673291979047
 20
770.4914904422087
 30
0.0
 10
-391.6288984463189
 20
769.5622652807465
 30
0.0
 10
-392.2748874977581
 20
769.302955970331
 30
0.0
 10
-393.6116536122477
 20
769.301923449655
 30
0.0
 10
-394.2550942266728
 20
769.5591283158847
 30
0.0
 10
-395.2158584201709
 20
770.4934545014119
 30
0.0
 10
-395.4888887091789
 20
771.1347755720981
 30
0.0
 10
-395.4891111984483
 20
772.4701044279067
 30
0.0
 10
-395.2126143137504
 20
773.1138955632983
 30
0.0
 10
-394.258398813809
 20
774.0432266341637
 30
0.0
 10
-393.6124664343508
 20
774.3026812250674
 30
0.0
 10
-392.2740620241393
 20
774.3021888504368
 30
0.0
 10
-391.6319623244248
 20
774.0453272025771
 30
0.0
 10
-390.6701974007899
 20
773.1106550917691
 30
0.0
 10
-390.3968418542983
 20
772.4696575239531
 30
0.0
 10
-390.3964846025779
 20
771.8024211252891
 30
0.0
  0
SPLINE
  5
78
330
1F
100
AcDbEntity
  8
0
  6
Continuous
 62
     7
370
    25
100
AcDbSpline
210
0.0
220
0.0
230
1.0
 70
    11
 71
     3
 72
    22
 73
    18
 74
     0
 42
0.00000001
 43
0.00000001
 40
0.5
 40
0.5
 40
0.5
 40
0.5
 40
0.625
 40
0.625
 40
0.75
 40
0.75
 40
0.875
 40
0.875
 40
1.0
 40
1.0
 40
1.125
 40
1.125
 40
1.25
 40
1.25
 40
1.375
 40
1.375
 40
1.5
 40
1.5
 40
1.5
 40
1.5
 10
-390.3964846025779
 20
701.8024211252887
 30
0.0
 10
-390.3961273508946
 20
701.1351847264945
 30
0.0
 10
-390.6732919793231
 20
700.4914904419891
 30
0.0
 10
-391.6288984460429
 20
699.5622652809652
 30
0.0
 10
-392.2748874974084
 20
699.3029559701828
 30
0.0
 10
-393.6116536125973
 20
699.3019234498031
 30
0.0
 10
-394.2550942266352
 20
699.5591283158603
 30
0.0
 10
-395.215858420209
 20
700.4934545014369
 30
0.0
 10
-395.4888887091786
 20
701.1347755721495
 30
0.0
 10
-395.4891111984488
 20
702.470104427856
 30
0.0
 10
-395.2126143140878
 20
703.1138955630684
 30
0.0
 10
-394.2583988134714
 20
704.0432266343936
 30
0.0
 10
-393.612466434612
 20
704.3026812249688
 30
0.0
 10
-392.2740620238779
 20
704.3021888505361
 30
0.0
 10
-391.6319623243971
 20
704.0453272025754
 30
0.0
 10
-390.6701974008174
 20
703.1106550917702
 30
0.0
 10
-390.3968418542611
 20
702.4696575240829
 30
0.0
 10
-390.3964846025779
 20
701.8024211252887
 30
0.0
  0
SPLINE
  5
7A
330
1F
100
AcDbEntity
  8
0
  6
Continuous
 62
     7
370
    25
100
AcDbSpline
210
0.0
220
0.0
230
1.0
 70
     8
 71
     3
 72
    10
 73
     6
 74
     0
 42
0.00000001
 43
0.00000001
 40
0.0
 40
0.0
 40
0.0
 40
0.0
 40
0.3369218813581177
 40
0.6702548303628819
 40
1.0
 40
1.0
 40
1.0
 40
1.0
 10
-292.1209027876233
 20
410.9324399956953
 30
0.0
 10
-293.4857493262859
 20
410.2222017470817
 30
0.0
 10
-296.2009038943277
 20
408.809290792997
 30
0.0
 10
-300.2472149931558
 20
406.6924105417076
 30
0.0
 10
-302.9270312441632
 20
405.2826522357327
 30
0.0
 10
-304.2596894022919
 20
404.5815870389154
 30
0.0
  0
SPLINE
  5
7C
330
1F
100
AcDbEntity
  8
0
  6
Continuous
 62
     7
370
    25
100
AcDbSpline
210
0.0
220
0.0
230
1.0
 70
     8
 71
     3
 72
    11
 73
     7
 74
     0
 42
0.00000001
 43
0.00000001
 40
0.0
 40
0.0
 40
0.0
 40
0.0
 40
0.2518674774181937
 40
0.5024895287138427
 40
0.751866813172077
 40
1.0
 40
1.0
 40
1.0
 40
1.0
 10
-304.259689402292
 20
413.6747740524864
 30
0.0
 10
-303.2429574409118
 20
414.5387890295035
 30
0.0
 10
-301.2145210213342
 20
416.2625466303397
 30
0.0
 10
-298.1740697474108
 20
418.8354872554524
 30
0.0
 10
-295.145145809141
 20
421.3914200961474
 30
0.0
 10
-293.1273018235504
 20
423.0868465813012
 30
0.0
 10
-292.1209027876232
 20
423.9324399930463
 30
0.0
  0
SPLINE
  5
7E
330
1F
100
AcDbEntity
  8
0
  6
Continuous
 62
     7
370
    25
100
AcDbSpline
210
0.0
220
0.0
230
1.0
 70
     8
 71
     3
 72
    11
 73
     7
 74
     0
 42
0.00000001
 43
0.00000001
 40
0.0
 40
0.0
 40
0.0
 40
0.0
 40
0.2502310145923722
 40
0.5003075723817548
 40
0.7502303436707239
 40
1.0
 40
1.0
 40
1.0
 40
1.0
 10
-292.1209027876232
 20
436.9324399956955
 30
0.0
 10
-293.3177140613193
 20
436.3097534160956
 30
0.0
 10
-295.7105978687779
 20
435.0647646144401
 30
0.0
 10
-299.2948855877548
 20
433.1903133492
 30
0.0
 10
-302.8743351765132
 20
431.3119867616837
 30
0.0
 10
-305.2572550999246
 20
430.0551248790458
 30
0.0
 10
-306.4483499763618
 20
429.4268865005372
 30
0.0
  0
SPLINE
  5
80
330
1F
100
AcDbEntity
  8
0
  6
Continuous
 62
     7
370
    25
100
AcDbSpline
210
0.0
220
0.0
230
1.0
 70
     8
 71
     3
 72
    11
 73
     7
 74
     0
 42
0.00000001
 43
0.00000001
 40
0.0
 40
0.0
 40
0.0
 40
0.0
 40
0.2575445621301647
 40
0.5100587654626421
 40
0.7575435711111437
 40
1.0
 40
1.0
 40
1.0
 40
1.0
 10
-306.4483499763616
 20
438.8097438802126
 30
0.0
 10
-305.2218105480401
 20
439.8545214158943
 30
0.0
 10
-302.7926884519397
 20
441.9236698988803
 30
0.0
 10
-299.17745066954
 20
444.9879805545572
 30
0.0
 10
-295.6291086846055
 20
447.9852215526141
 30
0.0
 10
-293.2822760634608
 20
449.9567786905787
 30
0.0
 10
-292.1209027876232
 20
450.9324399930463
 30
0.0
  0
SPLINE
  5
82
330
1F
100
AcDbEntity
  8
0
  6
Continuous
 62
     7
370
    25
100
AcDbSpline
210
0.0
220
0.0
230
1.0
 70
     8
 71
     3
 72
    11
 73
     7
 74
     0
 42
0.00000001
 43
0.00000001
 40
0.0
 40
0.0
 40
0.0
 40
0.0
 40
0.2481396316025359
 40
0.4975189187342121
 40
0.7481387497805959
 40
1.0
 40
1.0
 40
1.0
 40
1.0
 10
-292.1209027876232
 20
463.9324399956956
 30
0.0
 10
-293.488877987096
 20
463.2205553884381
 30
0.0
 10
-296.2316625141045
 20
461.7932297420712
 30
0.0
 10
-300.3508396193421
 20
459.6368300305672
 30
0.0
 10
-304.4870138365664
 20
457.4630429832656
 30
0.0
 10
-307.2478142100839
 20
456.0036734650557
 30
0.0
 10
-308.6316247844615
 20
455.2721859621578
 30
0.0
  0
SPLINE
  5
84
330
1F
100
AcDbEntity
  8
0
  6
Continuous
 62
     7
370
    25
100
AcDbSpline
210
0.0
220
0.0
230
1.0
 70
     8
 71
     3
 72
    12
 73
     8
 74
     0
 42
0.00000001
 43
0.00000001
 40
0.0
 40
0.0
 40
0.0
 40
0.0
 40
0.20497960000453
 40
0.4074687498828124
 40
0.6074680875735454
 40
0.8049782751409662
 40
1.0
 40
1.0
 40
1.0
 40
1.0
 10
-308.6316247844615
 20
464.944713707937
 30
0.0
 10
-307.5072544955018
 20
465.9048636316063
 30
0.0
 10
-305.2721747312831
 20
467.8134979010118
 30
0.0
 10
-301.9337917467772
 20
470.6516213975805
 30
0.0
 10
-298.6316620829176
 20
473.449193436475
 30
0.0
 10
-295.365844538193
 20
476.2062935834827
 30
0.0
 10
-293.1979689431268
 20
478.0275732008542
 30
0.0
 10
-292.1209027876232
 20
478.9324399930463
 30
0.0
  0
SPLINE
  5
86
330
1F
100
AcDbEntity
  8
0
  6
Continuous
 62
     7
370
    25
100
AcDbSpline
210
0.0
220
0.0
230
1.0
 70
     8
 71
     3
 72
    12
 73
     8
 74
     0
 42
0.00000001
 43
0.00000001
 40
0.0
 40
0.0
 40
0.0
 40
0.0
 40
0.1970026268464483
 40
0.3955033614476234
 40
0.595502789117591
 40
0.7970014821102027
 40
1.0
 40
1.0
 40
1.0
 40
1.0
 10
-292.1209027876232
 20
491.9324399956957
 30
0.0
 10
-293.3505882430301
 20
491.2925808149216
 30
0.0
 10
-295.8193103048722
 20
490.0079966400798
 30
0.0
 10
-299.5321717441497
 20
488.0656650286653
 30
0.0
 10
-303.2699118673804
 20
486.1026572311861
 30
0.0
 10
-307.0325105249926
 20
484.1189230346166
 30
0.0
 10
-309.5474743250339
 20
482.7862783870973
 30
0.0
 10
-310.8096188101372
 20
482.1174854237788
 30
0.0
  0
SPLINE
  5
88
330
1F
100
AcDbEntity
  8
0
  6
Continuous
 62
     7
370
    25
100
AcDbSpline
210
0.0
220
0.0
230
1.0
 70
     8
 71
     3
 72
    12
 73
     8
 74
     0
 42
0.00000001
 43
0.00000001
 40
0.0
 40
0.0
 40
0.0
 40
0.0
 40
0.2040035010548795
 40
0.4060044289431256
 40
0.60600359391714
 40
0.804001830804294
 40
1.0
 40
1.0
 40
1.0
 40
1.0
 10
-310.8096188101372
 20
492.0796835356619
 30
0.0
 10
-309.5435389738877
 20
493.1633046432466
 30
0.0
 10
-307.0238076052843
 20
495.3199096363017
 30
0.0
 10
-303.2548395627011
 20
498.5294908615203
 30
0.0
 10
-299.5171095723665
 20
501.7000711369688
 30
0.0
 10
-295.8106757296012
 20
504.8317334069491
 30
0.0
 10
-293.346657687207
 20
506.9023749094194
 30
0.0
 10
-292.1209027876232
 20
507.9324399995551
 30
0.0
  0
SPLINE
  5
8A
330
1F
100
AcDbEntity
  8
0
  6
Continuous
 62
     7
370
    25
100
AcDbSpline
210
0.0
220
0.0
230
1.0
 70
     8
 71
     3
 72
    12
 73
     8
 74
     0
 42
0.00000001
 43
0.00000001
 40
0.0
 40
0.0
 40
0.0
 40
0.0
 40
0.1995720405788131
 40
0.3993573203674689
 40
0.5993565810555479
 40
0.7995705619545767
 40
1.0
 40
1.0
 40
1.0
 40
1.0
 10
-292.1209027876232
 20
520.9324399956957
 30
0.0
 10
-293.5117970503866
 20
520.2086097108884
 30
0.0
 10
-296.2950717219322
 20
518.7601757413645
 30
0.0
 10
-300.4669090884712
 20
516.5761835187493
 30
0.0
 10
-304.639220717906
 20
514.3822464232522
 30
0.0
 10
-308.8120090787376
 20
512.1783521305368
 30
0.0
 10
-311.5917948179259
 20
510.7015720269758
 30
0.0
 10
-312.9824351410842
 20
509.9627848853995
 30
0.0
  0
SPLINE
  5
8C
330
1F
100
AcDbEntity
  8
0
  6
Continuous
 62
     7
370
    25
100
AcDbSpline
210
0.0
220
0.0
230
1.0
 70
     8
 71
     3
 72
    13
 73
     9
 74
     0
 42
0.00000001
 43
0.00000001
 40
0.0
 40
0.0
 40
0.0
 40
0.0
 40
0.1695692944870708
 40
0.3379767596088145
 40
0.5052229699040899
 40
0.671308511963124
 40
0.8362339847605833
 40
0.9999999999999999
 40
0.9999999999999999
 40
0.9999999999999999
 40
0.9999999999999999
 10
-312.9824351410842
 20
520.2146533633866
 30
0.0
 10
-311.8083142842087
 20
521.2220319194518
 30
0.0
 10
-309.4681172349951
 20
523.2298868268406
 30
0.0
 10
-305.9629290597169
 20
526.2231972381824
 30
0.0
 10
-302.4768027125766
 20
529.1898730221616
 30
0.0
 10
-299.0091067088574
 20
532.1291751334286
 30
0.0
 10
-295.5604959348307
 20
535.0418802380452
 30
0.0
 10
-293.2647344076421
 20
536.9711886208994
 30
0.0
 10
-292.1209027876232
 20
537.9324399995555
 30
0.0
  0
SPLINE
  5
8E
330
1F
100
AcDbEntity
  8
0
  6
Continuous
 62
     7
370
    25
100
AcDbSpline
210
0.0
220
0.0
230
1.0
 70
     8
 71
     3
 72
    13
 73
     9
 74
     0
 42
0.00000001
 43
0.00000001
 40
0.0
 40
0.0
 40
0.0
 40
0.0
 40
0.1658336755648248
 40
0.3319998529350053
 40
0.4984990554314701
 40
0.6653318032412366
 40
0.8324986134375694
 40
1.0
 40
1.0
 40
1.0
 40
1.0
 10
-292.1209027876232
 20
550.9324399956957
 30
0.0
 10
-293.3971264236973
 20
550.2683568067838
 30
0.0
 10
-295.9521325649145
 20
548.9388589209989
 30
0.0
 10
-299.7839662263712
 20
546.9339494077958
 30
0.0
 10
-303.6201909712822
 20
544.9187522863451
 30
0.0
 10
-307.4603953262194
 20
542.8924800169967
 30
0.0
 10
-311.3049903305658
 20
540.8559077221984
 30
0.0
 10
-313.8675928293322
 20
539.4911469341819
 30
0.0
 10
-315.1501750283847
 20
538.8080843470202
 30
0.0
  0
SPLINE
  5
90
330
1F
100
AcDbEntity
  8
0
  6
Continuous
 62
     7
370
    25
100
AcDbSpline
210
0.0
220
0.0
230
1.0
 70
     8
 71
     3
 72
    13
 73
     9
 74
     0
 42
0.00000001
 43
0.00000001
 40
0.0
 40
0.0
 40
0.0
 40
0.0
 40
0.172345441046565
 40
0.3424184096951048
 40
0.510219605834233
 40
0.6757497581688554
 40
0.8390096258140484
 40
0.9999999999999999
 40
0.9999999999999999
 40
0.9999999999999999
 40
0.9999999999999999
 10
-315.1501750283846
 20
549.3496231911115
 30
0.0
 10
-313.833410575625
 20
550.4819326993412
 30
0.0
 10
-311.2172439563111
 20
552.731621572666
 30
0.0
 10
-307.3105843951179
 20
556.0739205102295
 30
0.0
 10
-303.449834114926
 20
559.3642240820914
 30
0.0
 10
-299.6342249753956
 20
562.6016345258188
 30
0.0
 10
-295.8645871000952
 20
565.787136605641
 30
0.0
 10
-293.3629610952025
 20
567.8889091128152
 30
0.0
 10
-292.1209027876232
 20
568.9324399995554
 30
0.0
  0
SPLINE
  5
92
330
1F
100
AcDbEntity
  8
0
  6
Continuous
 62
     7
370
    25
100
AcDbSpline
210
0.0
220
0.0
230
1.0
 70
     8
 71
     3
 72
    13
 73
     9
 74
     0
 42
0.00000001
 43
0.00000001
 40
0.0
 40
0.0
 40
0.0
 40
0.0
 40
0.1636656137313658
 40
0.3285308338547391
 40
0.4945962813710525
 40
0.661862563913171
 40
0.8303302761203609
 40
1.0
 40
1.0
 40
1.0
 40
1.0
 10
-292.1209027876232
 20
581.932439995696
 30
0.0
 10
-293.4990502214671
 20
581.2152172685732
 30
0.0
 10
-296.2654463830864
 20
579.7755148458764
 30
0.0
 10
-300.4247892556904
 20
577.5977056921352
 30
0.0
 10
-304.610512398775
 20
575.396614427444
 30
0.0
 10
-308.8221224315355
 20
573.1712968424682
 30
0.0
 10
-313.0600966656767
 20
570.9226519112714
 30
0.0
 10
-315.8919686028564
 20
569.4115970099036
 30
0.0
 10
-317.3129379436199
 20
568.6533838086411
 30
0.0
  0
SPLINE
  5
94
330
1F
100
AcDbEntity
  8
0
  6
Continuous
 62
     7
370
    25
100
AcDbSpline
210
0.0
220
0.0
230
1.0
 70
     8
 71
     3
 72
    14
 73
    10
 74
     0
 42
0.00000001
 43
0.00000001
 40
0.0
 40
0.0
 40
0.0
 40
0.0
 40
0.1473791273549225
 40
0.2932500379597312
 40
0.4376132481931381
 40
0.5804692907834206
 40
0.7218187154998333
 40
0.8616620898806262
 40
1.0
 40
1.0
 40
1.0
 40
1.0
 10
-317.3129379436198
 20
579.4845930188359
 30
0.0
 10
-316.081782409551
 20
580.545783137939
 30
0.0
 10
-313.632070475577
 20
582.657303597414
 30
0.0
 10
-309.9690082829968
 20
585.7997103480146
 30
0.0
 10
-306.3382967511077
 20
588.9032001930261
 30
0.0
 10
-302.739463559626
 20
591.9672271981749
 30
0.0
 10
-299.1724861951733
 20
594.9917601140136
 30
0.0
 10
-295.6379109204908
 20
597.9774510837184
 30
0.0
 10
-293.2890015481573
 20
599.9510038585006
 30
0.0
 10
-292.1209027876232
 20
600.9324399995558
 30
0.0
  0
SPLINE
  5
96
330
1F
100
AcDbEntity
  8
0
  6
Continuous
 62
     7
370
    25
100
AcDbSpline
210
0.0
220
0.0
230
1.0
 70
     8
 71
     3
 72
    13
 73
     9
 74
     0
 42
0.00000001
 43
0.00000001
 40
0.0
 40
0.0
 40
0.0
 40
0.0
 40
0.164213771308207
 40
0.3294077372376455
 40
0.4955826300108717
 40
0.6627391689596953
 40
0.8308780608169031
 40
1.0
 40
1.0
 40
1.0
 40
1.0
 10
-292.1209027876232
 20
613.9324399956957
 30
0.0
 10
-293.6224664681783
 20
613.1509010991084
 30
0.0
 10
-296.6345566868581
 20
611.5831582877897
 30
0.0
 10
-301.159770356898
 20
609.2123314718089
 30
0.0
 10
-305.7072461653851
 20
606.8186565105115
 30
0.0
 10
-310.2764030008933
 20
604.4010219323269
 30
0.0
 10
-314.8678083690233
 20
601.9604944749049
 30
0.0
 10
-317.9335052495363
 20
600.3208800536323
 30
0.0
 10
-319.470821633952
 20
599.498683270262
 30
0.0
  0
SPLINE
  5
98
330
1F
100
AcDbEntity
  8
0
  6
Continuous
 62
     7
370
    25
100
AcDbSpline
210
0.0
220
0.0
230
1.0
 70
     8
 71
     3
 72
    14
 73
    10
 74
     0
 42
0.00000001
 43
0.00000001
 40
0.0
 40
0.0
 40
0.0
 40
0.0
 40
0.1470447635218472
 40
0.2926926227514405
 40
0.4369441781064971
 40
0.5798000476105805
 40
0.721260867579947
 40
0.8613272933438187
 40
1.0
 40
1.0
 40
1.0
 40
1.0
 10
-319.4708216339519
 20
610.6195628465607
 30
0.0
 10
-318.1377979260001
 20
611.7710425122459
 30
0.0
 10
-315.4844140452996
 20
614.0630629509357
 30
0.0
 10
-311.514660628525
 20
617.474635875885
 30
0.0
 10
-307.5765113711497
 20
620.8459754187593
 30
0.0
 10
-303.6694102083203
 20
624.176440388711
 30
0.0
 10
-299.7933331813974
 20
627.4659966432577
 30
0.0
 10
-295.9489147366255
 20
630.7154016121136
 30
0.0
 10
-293.3926462514769
 20
632.8636743852629
 30
0.0
 10
-292.1209027876232
 20
633.9324399995556
 30
0.0
  0
SPLINE
  5
9A
330
1F
100
AcDbEntity
  8
0
  6
Continuous
 62
     7
370
    25
100
AcDbSpline
210
0.0
220
0.0
230
1.0
 70
     8
 71
     3
 72
    14
 73
    10
 74
     0
 42
0.00000001
 43
0.00000001
 40
0.0
 40
0.0
 40
0.0
 40
0.0
 40
0.13989188101271
 40
0.2807713073969224
 40
0.4226388152444245
 40
0.5654949295231776
 40
0.7093401643772873
 40
0.8541750234171311
 40
1.0
 40
1.0
 40
1.0
 40
1.0
 10
-292.1209027876232
 20
646.9324399956959
 30
0.0
 10
-293.5011571166155
 20
646.2141157572358
 30
0.0
 10
-296.271409469261
 20
644.772396380048
 30
0.0
 10
-300.4359743718028
 20
642.5917910566525
 30
0.0
 10
-304.6257966196674
 20
640.388367186369
 30
0.0
 10
-308.8405049540258
 20
638.161408804677
 30
0.0
 10
-313.080108244713
 20
635.9109389772451
 30
0.0
 10
-317.3449497127412
 20
633.6375954151575
 30
0.0
 10
-320.1943625624284
 20
632.110254561912
 30
0.0
 10
-321.6239221752669
 20
631.3439827318828
 30
0.0
  0
SPLINE
  5
9C
330
1F
100
AcDbEntity
  8
0
  6
Continuous
 62
     7
370
    25
100
AcDbSpline
210
0.0
220
0.0
230
1.0
 70
     8
 71
     3
 72
    15
 73
    11
 74
     0
 42
0.00000001
 43
0.00000001
 40
0.0
 40
0.0
 40
0.0
 40
0.0
 40
0.1303198274668566
 40
0.2591187414245982
 40
0.3863972015962858
 40
0.512155684379502
 40
0.6363946836570112
 40
0.7591147116569128
 40
0.8803162998659623
 40
1.0
 40
1.0
 40
1.0
 40
1.0
 10
-321.623922175267
 20
642.7545326742855
 30
0.0
 10
-320.3501273817299
 20
643.8573788661727
 30
0.0
 10
-317.8174037728184
 20
646.0502003483783
 30
0.0
 10
-314.0329278023862
 20
649.3112372775225
 30
0.0
 10
-310.2873947093689
 20
652.5271112124393
 30
0.0
 10
-306.580258356602
 20
655.6971916064837
 30
0.0
 10
-302.9117054550687
 20
658.8216956817294
 30
0.0
 10
-299.2815294926053
 20
661.9003787415443
 30
0.0
 10
-295.6903614101261
 20
664.9339924967201
 30
0.0
 10
-293.3057135424826
 20
666.9371650179754
 30
0.0
 10
-292.1209027876232
 20
667.9324399930465
 30
0.0
  0
SPLINE
  5
9E
330
1F
100
AcDbEntity
  8
0
  6
Continuous
 62
     7
370
    25
100
AcDbSpline
210
0.0
220
0.0
230
1.0
 70
     8
 71
     3
 72
    14
 73
    10
 74
     0
 42
0.00000001
 43
0.00000001
 40
0.0
 40
0.0
 40
0.0
 40
0.0
 40
0.1391735753578445
 40
0.2795740095073242
 40
0.4212019161787938
 40
0.5640578932824026
 40
0.7081425234398794
 40
0.8534563744944537
 40
1.0
 40
1.0
 40
1.0
 40
1.0
 10
-292.1209027876232
 20
680.932439995696
 30
0.0
 10
-293.5944067338371
 20
680.1655010989219
 30
0.0
 10
-296.554404026489
 20
678.6248624980456
 30
0.0
 10
-301.0076435977066
 20
676.2917888806792
 30
0.0
 10
-305.4952877166829
 20
673.9297015074129
 30
0.0
 10
-310.0169067232837
 20
671.5377717212265
 30
0.0
 10
-314.5725137520395
 20
669.1160319851949
 30
0.0
 10
-319.162496503269
 20
666.6652009601772
 30
0.0
 10
-322.2314111105943
 20
665.016903544855
 30
0.0
 10
-323.7723340234658
 20
664.1892821935035
 30
0.0
  0
SPLINE
  5
A0
330
1F
100
AcDbEntity
  8
0
  6
Continuous
 62
     7
370
    25
100
AcDbSpline
210
0.0
220
0.0
230
1.0
 70
     8
 71
     3
 72
    15
 73
    11
 74
     0
 42
0.00000001
 43
0.00000001
 40
0.0
 40
0.0
 40
0.0
 40
0.0
 40
0.1304629084824658
 40
0.2593638926535811
 40
0.3867034738998222
 40
0.5124821930249477
 40
0.636700611219082
 40
0.759359311088494
 40
0.8804588977507161
 40
1.0
 40
1.0
 40
1.0
 40
1.0
 10
-323.7723340234656
 20
675.88950250201
 30
0.0
 10
-322.4048383893461
 20
677.0759655790278
 30
0.0
 10
-319.6862190133286
 20
679.4346871936573
 30
0.0
 10
-315.6240485026624
 20
682.94131182813
 30
0.0
 10
-311.6045219008908
 20
686.3978409536627
 30
0.0
 10
-307.6270147102759
 20
689.8035550814781
 30
0.0
 10
-303.6917405635613
 20
693.1587023646872
 30
0.0
 10
-299.7984626310705
 20
696.4630022923802
 30
0.0
 10
-295.9479046837442
 20
699.7173171395842
 30
0.0
 10
-293.391050352546
 20
701.8653695923895
 30
0.0
 10
-292.1209027876232
 20
702.9324399995556
 30
0.0
  0
SPLINE
  5
A2
330
1F
100
AcDbEntity
  8
0
  6
Continuous
 62
     7
370
    25
100
AcDbSpline
210
0.0
220
0.0
230
1.0
 70
     8
 71
     3
 72
    15
 73
    11
 74
     0
 42
0.00000001
 43
0.00000001
 40
0.0
 40
0.0
 40
0.0
 40
0.0
 40
0.1211258456722922
 40
0.2433576855760705
 40
0.3666959884146243
 40
0.4911412103893037
 40
0.6166937956353149
 40
0.7433541766389506
 40
0.8711227746371024
 40
1.0
 40
1.0
 40
1.0
 40
1.0
 10
-292.1209027876232
 20
715.9324399956961
 30
0.0
 10
-293.490562218647
 20
715.2196185939836
 30
0.0
 10
-296.2423873746353
 20
713.7874670528568
 30
0.0
 10
-300.3834465851011
 20
711.6190403025427
 30
0.0
 10
-304.5580571209632
 20
709.4234934233291
 30
0.0
 10
-308.7658118831767
 20
707.2000435389218
 30
0.0
 10
-313.0068450396818
 20
704.9489470369798
 30
0.0
 10
-317.2810308987539
 20
702.6699686374258
 30
0.0
 10
-321.588741117805
 20
700.363798509518
 30
0.0
 10
-324.4695323848599
 20
698.813219940063
 30
0.0
 10
-325.916150063985
 20
698.0345816551244
 30
0.0
  0
SPLINE
  5
A4
330
1F
100
AcDbEntity
  8
0
  6
Continuous
 62
     7
370
    25
100
AcDbSpline
210
0.0
220
0.0
230
1.0
 70
     8
 71
     3
 72
    16
 73
    12
 74
     0
 42
0.00000001
 43
0.00000001
 40
0.0
 40
0.0
 40
0.0
 40
0.0
 40
0.1152316173719028
 40
0.2294321138153567
 40
0.3426018979460844
 40
0.4547413896469844
 40
0.5658510204813726
 40
0.6759312341251028
 40
0.7849824868185986
 40
0.8930052478399241
 40
1.0
 40
1.0
 40
1.0
 40
1.0
 10
-325.9161500639848
 20
710.0244723297346
 30
0.0
 10
-324.6270786613511
 20
711.1453400502571
 30
0.0
 10
-322.0604707848806
 20
713.377045690532
 30
0.0
 10
-318.2199824067173
 20
716.7004903809642
 30
0.0
 10
-314.408308804274
 20
719.9871673895682
 30
0.0
 10
-310.6249020885547
 20
723.2364474648246
 30
0.0
 10
-306.869895518968
 20
726.4484831863526
 30
0.0
 10
-303.1432964228678
 20
729.6232849505857
 30
0.0
 10
-299.4449463039958
 20
732.7606635039751
 30
0.0
 10
-295.7754631248681
 20
735.8613552705459
 30
0.0
 10
-293.3352005632775
 20
737.9120131872586
 30
0.0
 10
-292.1209027876232
 20
738.9324399995559
 30
0.0
  0
SPLINE
  5
A6
330
1F
100
AcDbEntity
  8
0
  6
Continuous
 62
     7
370
    25
100
AcDbSpline
210
0.0
220
0.0
230
1.0
 70
     8
 71
     3
 72
    15
 73
    11
 74
     0
 42
0.00000001
 43
0.00000001
 40
0.0
 40
0.0
 40
0.0
 40
0.0
 40
0.1214854077014531
 40
0.2439739603678322
 40
0.3674661856894724
 40
0.4919625985942166
 40
0.6174637016494406
 40
0.7439699854486208
 40
0.8714819289831417
 40
1.0
 40
1.0
 40
1.0
 40
1.0
 10
-292.1209027876232
 20
751.9324399956962
 30
0.0
 10
-293.5819299349357
 20
751.172006005822
 30
0.0
 10
-296.5160484112118
 20
749.6448588725318
 30
0.0
 10
-300.9291864501135
 20
747.3329452898752
 30
0.0
 10
-305.3740375229779
 20
744.9936230213264
 30
0.0
 10
-309.8501433967615
 20
742.6260109006181
 30
0.0
 10
-314.3576553500881
 20
740.2303978657689
 30
0.0
 10
-318.8964304422342
 20
737.8065168506242
 30
0.0
 10
-323.4668923608303
 20
735.3551528681138
 30
0.0
 10
-326.5219367322124
 20
733.7071304586796
 30
0.0
 10
-328.0554616596272
 20
732.8798811167452
 30
0.0
  0
SPLINE
  5
A8
330
1F
100
AcDbEntity
  8
0
  6
Continuous
 62
     7
370
    25
100
AcDbSpline
210
0.0
220
0.0
230
1.0
 70
     8
 71
     3
 72
    16
 73
    12
 74
     0
 42
0.00000001
 43
0.00000001
 40
0.0
 40
0.0
 40
0.0
 40
0.0
 40
0.116044014960841
 40
0.2308536886840164
 40
0.3444294756557085
 40
0.4567718453373395
 40
0.5678812828247006
 40
0.677758289543394
 40
0.7864033839829885
 40
0.8938171024725144
 40
1.0
 40
1.0
 40
1.0
 40
1.0
 10
-328.0554616596271
 20
745.1594421574598
 30
0.0
 10
-326.6756734765713
 20
746.3616442427365
 30
0.0
 10
-323.9307736920496
 20
748.7532607860229
 30
0.0
 10
-319.8265889310895
 20
752.3113378761942
 30
0.0
 10
-315.7599247514231
 20
755.8235586989298
 30
0.0
 10
-311.7301689951927
 20
759.2892216935758
 30
0.0
 10
-307.7374696757864
 20
762.7084959264221
 30
0.0
 10
-303.7818368760396
 20
766.0813953941408
 30
0.0
 10
-299.8630878095491
 20
769.4077017948362
 30
0.0
 10
-295.9819315845015
 20
772.6882603754067
 30
0.0
 10
-293.402958728435
 20
774.8552090388433
 30
0.0
 10
-292.1209027876232
 20
775.932439999556
 30
0.0
  0
SPLINE
  5
AA
330
1F
100
AcDbEntity
  8
0
  6
Continuous
 62
     7
370
    25
100
AcDbSpline
210
0.0
220
0.0
230
1.0
 70
     8
 71
     3
 72
    16
 73
    12
 74
     0
 42
0.00000001
 43
0.00000001
 40
0.0
 40
0.0
 40
0.0
 40
0.0
 40
0.1081544087401498
 40
0.2170470519626714
 40
0.3266783451952934
 40
0.4370486956230282
 40
0.5481585023055936
 40
0.6600081563879652
 40
0.772598041304285
 40
0.8859285329753521
 40
1.0
 40
1.0
 40
1.0
 40
1.0
 10
-292.1209027876232
 20
788.9324399956962
 30
0.0
 10
-293.4992534591473
 20
788.2151060685476
 30
0.0
 10
-296.2653630732625
 20
786.7755418753351
 30
0.0
 10
-300.4232125649604
 20
784.5984347643824
 30
0.0
 10
-304.6053199429612
 20
782.3990455983438
 30
0.0
 10
-308.8112901347955
 20
780.1766140438161
 30
0.0
 10
-313.0412236549646
 20
777.93133402354
 30
0.0
 10
-317.2951175207438
 20
775.6631977760316
 30
0.0
 10
-321.5728812577725
 20
773.372038771272
 30
0.0
 10
-325.8748834107167
 20
771.0585376002476
 30
0.0
 10
-328.748745500225
 20
769.504653997174
 30
0.0
 10
-330.1903586967736
 20
768.7251805783661
 30
0.0
  0
SPLINE
  5
AC
330
1F
100
AcDbEntity
  8
0
  6
Continuous
 62
     7
370
    25
100
AcDbSpline
210
0.0
220
0.0
230
1.0
 70
     8
 71
     3
 72
    17
 73
    13
 74
     0
 42
0.00000001
 43
0.00000001
 40
0.0
 40
0.0
 40
0.0
 40
0.0
 40
0.1049761016857602
 40
0.2088453746826493
 40
0.3116081826857515
 40
0.4132649012658903
 40
0.5138159183880351
 40
0.6132616349580965
 40
0.7116024653999047
 40
0.8088388382644599
 40
0.9049711968735319
 40
0.9999999999999999
 40
0.9999999999999999
 40
0.9999999999999999
 40
0.9999999999999999
 10
-330.1903586967736
 20
781.2944119851842
 30
0.0
 10
-328.8685926996034
 20
782.4485048767433
 30
0.0
 10
-326.238996910763
 20
784.7445223367718
 30
0.0
 10
-322.3075149095756
 20
788.1611345315755
 30
0.0
 10
-318.4119639280477
 20
791.5344910253834
 30
0.0
 10
-314.5517864978567
 20
794.8639540331358
 30
0.0
 10
-310.7271329320282
 20
798.1496957222556
 30
0.0
 10
-306.9379514212158
 20
801.3916562253056
 30
0.0
 10
-303.1843003837856
 20
804.589904717956
 30
0.0
 10
-299.4660002029398
 20
807.7442272815358
 30
0.0
 10
-295.7837007707286
 20
810.8553985243315
 30
0.0
 10
-293.3371275025477
 20
812.9107145524517
 30
0.0
 10
-292.1209027876232
 20
813.932439993047
 30
0.0
  0
SPLINE
  5
AE
330
1F
100
AcDbEntity
  8
0
  6
Continuous
 62
     7
370
    25
100
AcDbSpline
210
0.0
220
0.0
230
1.0
 70
     8
 71
     3
 72
    15
 73
    11
 74
     0
 42
0.00000001
 43
0.00000001
 40
0.0
 40
0.0
 40
0.0
 40
0.0
 40
0.1224624683317941
 40
0.2456489295298255
 40
0.3695599028027096
 40
0.4941958983045386
 40
0.6195574173380538
 40
0.7456449525523215
 40
0.8724589881350888
 40
1.0
 40
1.0
 40
1.0
 40
1.0
 10
-655.4698658413909
 20
667.9324400000027
 30
0.0
 10
-654.2577800500275
 20
666.9137797422366
 30
0.0
 10
-651.8264426680303
 20
664.8704369509016
 30
0.0
 10
-648.1767674445804
 20
661.7867854943215
 30
0.0
 10
-644.5114957032699
 20
658.6780693569585
 30
0.0
 10
-640.8312274331253
 20
655.5435741446717
 30
0.0
 10
-637.1357641838243
 20
652.383534785917
 30
0.0
 10
-633.4252961133554
 20
649.1977303062763
 30
0.0
 10
-629.6992579051854
 20
645.9868131907399
 30
0.0
 10
-627.2133519347893
 20
643.8340104998538
 30
0.0
 10
-625.9668464455261
 20
642.7545326742857
 30
0.0
  0
SPLINE
  5
B0
330
1F
100
AcDbEntity
  8
0
  6
Continuous
 62
     7
370
    25
100
AcDbSpline
210
0.0
220
0.0
230
1.0
 70
     8
 71
     3
 72
    14
 73
    10
 74
     0
 42
0.00000001
 43
0.00000001
 40
0.0
 40
0.0
 40
0.0
 40
0.0
 40
0.1481914923787106
 40
0.2946040270207655
 40
0.4392380899541165
 40
0.5820941853589707
 40
0.7231728364775903
 40
0.8624745865814258
 40
1.0
 40
1.0
 40
1.0
 40
1.0
 10
-625.9668464455261
 20
631.3439827318828
 30
0.0
 10
-627.4196432389787
 20
632.1226202108427
 30
0.0
 10
-630.3077967957307
 20
633.6705480521025
 30
0.0
 10
-634.6190946613933
 20
635.9686561499902
 30
0.0
 10
-638.8819251490268
 20
638.2315104448709
 30
0.0
 10
-643.0966200040212
 20
640.4584946911527
 30
0.0
 10
-647.2631974142153
 20
642.6495680568654
 30
0.0
 10
-651.381266393839
 20
644.8054847950848
 30
0.0
 10
-654.1128419911264
 20
646.2264943629837
 30
0.0
 10
-655.4698658413909
 20
646.9324400000028
 30
0.0
  0
SPLINE
  5
B1
330
1F
100
AcDbEntity
  8
0
  6
Continuous
 62
     7
370
    25
100
AcDbSpline
210
0.0
220
0.0
230
1.0
 70
     8
 71
     3
 72
    14
 73
    10
 74
     0
 42
0.00000001
 43
0.00000001
 40
0.0
 40
0.0
 40
0.0
 40
0.0
 40
0.1468120840183454
 40
0.2923049110808748
 40
0.4364790315458827
 40
0.5793350110127755
 40
0.7208734308831649
 40
0.8610948889476959
 40
1.0
 40
1.0
 40
1.0
 40
1.0
 10
-623.8184345973319
 20
664.1892821935038
 30
0.0
 10
-625.362195855823
 20
665.018390812536
 30
0.0
 10
-628.4358460966091
 20
666.6691576603953
 30
0.0
 10
-633.031501279773
 20
669.1229709836977
 30
0.0
 10
-637.5899448078663
 20
671.5462013571785
 30
0.0
 10
-642.1115620896128
 20
673.9381343583589
 30
0.0
 10
-646.5963674375932
 20
676.2987353107004
 30
0.0
 10
-651.0439295316386
 20
678.6288360703452
 30
0.0
 10
-653.999199373319
 20
680.16698997588
 30
0.0
 10
-655.4698658413909
 20
680.9324400000029
 30
0.0
  0
SPLINE
  5
B3
330
1F
100
AcDbEntity
  8
0
  6
Continuous
 62
     7
370
    25
100
AcDbSpline
210
0.0
220
0.0
230
1.0
 70
     8
 71
     3
 72
    16
 73
    12
 74
     0
 42
0.00000001
 43
0.00000001
 40
0.0
 40
0.0
 40
0.0
 40
0.0
 40
0.1076147218004926
 40
0.2161025967442108
 40
0.3254640439767499
 40
0.4356994726790155
 40
0.5468092823761483
 40
0.6587938632347644
 40
0.7716535963489688
 40
0.8853888540157377
 40
1.0
 40
1.0
 40
1.0
 40
1.0
 10
-655.4698658413909
 20
702.9324400000029
 30
0.0
 10
-654.326589695609
 20
701.9716500456767
 30
0.0
 10
-652.0307612088964
 20
700.0422745793663
 30
0.0
 10
-648.5804396824643
 20
697.1277979458007
 30
0.0
 10
-645.1076431092433
 20
694.1835849444022
 30
0.0
 10
-641.6129080167234
 20
691.2089962942297
 30
0.0
 10
-638.0960973256232
 20
688.2041956479007
 30
0.0
 10
-634.557216420065
 20
685.1691752063957
 30
0.0
 10
-630.9963838650696
 20
682.1037988866566
 30
0.0
 10
-627.4131143398463
 20
679.0086252938166
 30
0.0
 10
-625.0197213605892
 20
676.9318654358916
 30
0.0
 10
-623.818434597332
 20
675.8895025020103
 30
0.0
  0
SPLINE
  5
B5
330
1F
100
AcDbEntity
  8
0
  6
Continuous
 62
     7
370
    25
100
AcDbSpline
210
0.0
220
0.0
230
1.0
 70
     8
 71
     3
 72
    15
 73
    11
 74
     0
 42
0.00000001
 43
0.00000001
 40
0.0
 40
0.0
 40
0.0
 40
0.0
 40
0.1301790447673338
 40
0.2588774987343794
 40
0.3860957748235553
 40
0.511834300539891
 40
0.6360935186613415
 40
0.7588738879701721
 40
0.8801758840283245
 40
1.0
 40
1.0
 40
1.0
 40
1.0
 10
-621.6746185568172
 20
698.0345816551245
 30
0.0
 10
-623.1358307467531
 20
698.8211197310801
 30
0.0
 10
-626.0416360361285
 20
700.3852501956009
 30
0.0
 10
-630.3806174815874
 20
702.7083537512144
 30
0.0
 10
-634.673564522144
 20
704.9974953514848
 30
0.0
 10
-638.9208470533699
 20
707.2519881157741
 30
0.0
 10
-643.1223390160471
 20
709.4720681384555
 30
0.0
 10
-647.2781786562293
 20
711.6574710772306
 30
0.0
 10
-651.3879445239274
 20
713.8090078446312
 30
0.0
 10
-654.1147964290813
 20
715.2275273524835
 30
0.0
 10
-655.4698658413909
 20
715.9324400000028
 30
0.0
  0
SPLINE
  5
B7
330
1F
100
AcDbEntity
  8
0
  6
Continuous
 62
     7
370
    25
100
AcDbSpline
210
0.0
220
0.0
230
1.0
 70
     8
 71
     3
 72
    16
 73
    12
 74
     0
 42
0.00000001
 43
0.00000001
 40
0.0
 40
0.0
 40
0.0
 40
0.0
 40
0.1078786626912793
 40
0.21656436320587
 40
0.3260575771831277
 40
0.4363587698159559
 40
0.5474683961487488
 40
0.6593869013649691
 40
0.7721147210648445
 40
0.8856522815335007
 40
1.0
 40
1.0
 40
1.0
 40
1.0
 10
-655.4698658413909
 20
738.9324400000028
 30
0.0
 10
-654.24559770825
 20
737.903510214628
 30
0.0
 10
-651.787902719894
 20
735.8379532435434
 30
0.0
 10
-648.0959700786854
 20
732.7181493844482
 30
0.0
 10
-644.382656353616
 20
729.5680260852847
 30
0.0
 10
-640.6485708852591
 20
726.3868572994052
 30
0.0
 10
-636.8935582659764
 20
723.1748285962848
 30
0.0
 10
-633.1176240579357
 20
719.931931654324
 30
0.0
 10
-629.3209046005725
 20
716.6580103798893
 30
0.0
 10
-625.5028429387422
 20
713.3537043390063
 30
0.0
 10
-622.9537141647057
 20
711.1368433968037
 30
0.0
 10
-621.6746185568171
 20
710.024472329735
 30
0.0
  0
SPLINE
  5
B9
330
1F
100
AcDbEntity
  8
0
  6
Continuous
 62
     7
370
    25
100
AcDbSpline
210
0.0
220
0.0
230
1.0
 70
     8
 71
     3
 72
    15
 73
    11
 74
     0
 42
0.00000001
 43
0.00000001
 40
0.0
 40
0.0
 40
0.0
 40
0.0
 40
0.129109386624471
 40
0.2570437104346615
 40
0.3838034309941207
 40
0.5093890207613243
 40
0.6338009655711293
 40
0.7570397651387245
 40
0.8791059335871744
 40
1.0
 40
1.0
 40
1.0
 40
1.0
 10
-619.5353069611795
 20
732.8798811167457
 30
0.0
 10
-621.0759390064587
 20
733.7108411963958
 30
0.0
 10
-624.1431813479079
 20
735.365198541595
 30
0.0
 10
-628.7288614236232
 20
737.8245346659772
 30
0.0
 10
-633.2767689864933
 20
740.2531960887118
 30
0.0
 10
-637.7873224236589
 20
742.6504074860698
 30
0.0
 10
-642.2603801023404
 20
745.0164335702952
 30
0.0
 10
-646.6960937993709
 20
747.3509844028981
 30
0.0
 10
-651.0940027165044
 20
749.6549461326607
 30
0.0
 10
-654.0159435285832
 20
751.1757209124751
 30
0.0
 10
-655.469865841391
 20
751.932440000003
 30
0.0
  0
SPLINE
  5
BB
330
1F
100
AcDbEntity
  8
0
  6
Continuous
 62
     7
370
    25
100
AcDbSpline
210
0.0
220
0.0
230
1.0
 70
     8
 71
     3
 72
    17
 73
    13
 74
     0
 42
0.00000001
 43
0.00000001
 40
0.0
 40
0.0
 40
0.0
 40
0.0
 40
0.0962292342807461
 40
0.1932954169664225
 40
0.2911989396438034
 40
0.3899401839375187
 40
0.4895195218408351
 40
0.5899373160329764
 40
0.6911939201836553
 40
0.7932896792454254
 40
0.8962249297344247
 40
1.0
 40
1.0
 40
1.0
 40
1.0
 10
-655.469865841391
 20
775.932440000003
 30
0.0
 10
-654.3080884152198
 20
774.9560741554617
 30
0.0
 10
-651.9744290684271
 20
772.9948505788321
 30
0.0
 10
-648.4664119648156
 20
770.0312092789492
 30
0.0
 10
-644.9336464539191
 20
767.0354924013286
 30
0.0
 10
-641.3766945963237
 20
764.0070303711578
 30
0.0
 10
-637.7954015595195
 20
760.9460075136783
 30
0.0
 10
-634.1898179932654
 20
757.852363889954
 30
0.0
 10
-630.559897541264
 20
754.7261531330004
 30
0.0
 10
-626.9057760175339
 20
751.5672193855931
 30
0.0
 10
-623.2269509535184
 20
748.3761387308293
 30
0.0
 10
-620.76918341972
 20
746.2345745874516
 30
0.0
 10
-619.5353069611796
 20
745.1594421574597
 30
0.0
  0
SPLINE
  5
BD
330
1F
100
AcDbEntity
  8
0
  6
Continuous
 62
     7
370
    25
100
AcDbSpline
210
0.0
220
0.0
230
1.0
 70
     8
 71
     3
 72
    15
 73
    11
 74
     0
 42
0.00000001
 43
0.00000001
 40
0.0
 40
0.0
 40
0.0
 40
0.0
 40
0.1299842070754979
 40
0.2585432934945031
 40
0.3856777675920414
 40
0.5113881549852513
 40
0.6356749993589368
 40
0.758538863295868
 40
0.8799803291548626
 40
1.0
 40
1.0
 40
1.0
 40
1.0
 10
-617.4004099240374
 20
768.7251805783665
 30
0.0
 10
-619.0432974946497
 20
769.6130701142836
 30
0.0
 10
-622.311060347568
 20
771.379114544143
 30
0.0
 10
-627.1922118297596
 20
774.0014919127568
 30
0.0
 10
-632.0241199634461
 20
776.5857640812717
 30
0.0
 10
-636.8072492945831
 20
779.1310719105701
 30
0.0
 10
-641.5414418069648
 20
781.6377103876608
 30
0.0
 10
-646.2268697937005
 20
784.1053503970426
 30
0.0
 10
-650.863008648712
 20
786.5350010273086
 30
0.0
 10
-653.940286753515
 20
788.1364369194387
 30
0.0
 10
-655.4698658413909
 20
788.9324400000031
 30
0.0
  0
SPLINE
  5
BF
330
1F
100
AcDbEntity
  8
0
  6
Continuous
 62
     7
370
    25
100
AcDbSpline
210
0.0
220
0.0
230
1.0
 70
     8
 71
     3
 72
    17
 73
    13
 74
     0
 42
0.00000001
 43
0.00000001
 40
0.0
 40
0.0
 40
0.0
 40
0.0
 40
0.0961191607521995
 40
0.1930996160347193
 40
0.2909418029087535
 40
0.3896461469882966
 40
0.489213062831084
 40
0.589642954313184
 40
0.6909362149881219
 40
0.7930932284311828
 40
0.8961143685697113
 40
0.9999999999999999
 40
0.9999999999999999
 40
0.9999999999999999
 40
0.9999999999999999
 10
-655.4698658413911
 20
813.9324400000036
 30
0.0
 10
-654.2399209028745
 20
812.8987130084911
 30
0.0
 10
-651.7690098637773
 20
810.8219961126747
 30
0.0
 10
-648.0546541580054
 20
807.6828732269355
 30
0.0
 10
-644.313466324974
 20
804.5085734498966
 30
0.0
 10
-640.5460762048442
 20
801.2983464633812
 30
0.0
 10
-636.7523102385368
 20
798.0523988773249
 30
0.0
 10
-632.9322251792335
 20
794.7706635514145
 30
0.0
 10
-629.0857692016759
 20
791.4532003510056
 30
0.0
 10
-625.213094043133
 20
788.0998355020689
 30
0.0
 10
-621.3136381782995
 20
784.7112114380772
 30
0.0
 10
-618.7084476501913
 20
782.4365131601463
 30
0.0
 10
-617.4004099240373
 20
781.2944119851845
 30
0.0
  0
SPLINE
  5
C3
330
1F
100
AcDbEntity
  8
0
  6
Continuous
 62
     7
370
    25
100
AcDbSpline
210
0.0
220
0.0
230
1.0
 70
     8
 71
     3
 72
     9
 73
     5
 74
     0
 42
0.00000001
 43
0.00000001
 40
0.0
 40
0.0
 40
0.0
 40
0.0
 40
0.5093518638413117
 40
0.9999999999999999
 40
0.9999999999999999
 40
0.9999999999999999
 40
0.9999999999999999
 10
-643.3310792184612
 20
404.5815870389152
 30
0.0
 10
-645.3898068113419
 20
405.6641485848629
 30
0.0
 10
-649.4316641972257
 20
407.7895193212798
 30
0.0
 10
-653.482386495598
 20
409.8979449131307
 30
0.0
 10
-655.4698658413909
 20
410.9324400000018
 30
0.0
  0
SPLINE
  5
C5
330
1F
100
AcDbEntity
  8
0
  6
Continuous
 62
     7
370
    25
100
AcDbSpline
210
0.0
220
0.0
230
1.0
 70
     8
 71
     3
 72
    11
 73
     7
 74
     0
 42
0.00000001
 43
0.00000001
 40
0.0
 40
0.0
 40
0.0
 40
0.0
 40
0.2477094331601481
 40
0.4969454653977474
 40
0.7477087679841813
 40
1.0
 40
1.0
 40
1.0
 40
1.0
 10
-655.4698658413911
 20
423.9324400000021
 30
0.0
 10
-654.4651796609
 20
423.0882976056945
 30
0.0
 10
-652.4496155575337
 20
421.3948104839102
 30
0.0
 10
-649.4224082119036
 20
418.8403241820047
 30
0.0
 10
-646.3802465932097
 20
416.2659295890539
 30
0.0
 10
-644.3495243168459
 20
414.5402397127922
 30
0.0
 10
-643.3310792184614
 20
413.6747740524865
 30
0.0
  0
SPLINE
  5
C7
330
1F
100
AcDbEntity
  8
0
  6
Continuous
 62
     7
370
    25
100
AcDbSpline
210
0.0
220
0.0
230
1.0
 70
     8
 71
     3
 72
    11
 73
     7
 74
     0
 42
0.00000001
 43
0.00000001
 40
0.0
 40
0.0
 40
0.0
 40
0.0
 40
0.2549726838295348
 40
0.5066298020579872
 40
0.7549720125820846
 40
1.0
 40
1.0
 40
1.0
 40
1.0
 10
-641.1424186443968
 20
429.4268865005369
 30
0.0
 10
-642.3583635874206
 20
430.0681398019565
 30
0.0
 10
-644.774441798408
 20
431.3423077962993
 30
0.0
 10
-648.3787125953585
 20
433.2337037471537
 30
0.0
 10
-651.938122748237
 20
435.0951932611551
 30
0.0
 10
-654.2979020969639
 20
436.3227731837295
 30
0.0
 10
-655.4698658413909
 20
436.9324400000019
 30
0.0
  0
SPLINE
  5
C9
330
1F
100
AcDbEntity
  8
0
  6
Continuous
 62
     7
370
    25
100
AcDbSpline
210
0.0
220
0.0
230
1.0
 70
     8
 71
     3
 72
    11
 73
     7
 74
     0
 42
0.00000001
 43
0.00000001
 40
0.0
 40
0.0
 40
0.0
 40
0.0
 40
0.252180458144343
 40
0.5029066200536217
 40
0.7521794676174595
 40
1.0
 40
1.0
 40
1.0
 40
1.0
 10
-655.469865841391
 20
450.9324400000021
 30
0.0
 10
-654.262055905938
 20
449.9174799665846
 30
0.0
 10
-651.8534013385878
 20
447.89341305969
 30
0.0
 10
-648.2585120884511
 20
444.8570055860379
 30
0.0
 10
-644.68961484181
 20
441.8321057584376
 30
0.0
 10
-642.3225121230647
 20
439.8152336654316
 30
0.0
 10
-641.1424186443968
 20
438.8097438802122
 30
0.0
  0
SPLINE
  5
CB
330
1F
100
AcDbEntity
  8
0
  6
Continuous
 62
     7
370
    25
100
AcDbSpline
210
0.0
220
0.0
230
1.0
 70
     8
 71
     3
 72
    11
 73
     7
 74
     0
 42
0.00000001
 43
0.00000001
 40
0.0
 40
0.0
 40
0.0
 40
0.0
 40
0.2536446473153088
 40
0.5048589465109221
 40
0.7536437660278719
 40
1.0
 40
1.0
 40
1.0
 40
1.0
 10
-638.9591438363022
 20
455.2721859621577
 30
0.0
 10
-640.3527710253256
 20
456.0088188997359
 30
0.0
 10
-643.1266720791281
 20
457.475026575582
 30
0.0
 10
-647.2726496439168
 20
459.6539839993005
 30
0.0
 10
-651.3819978598099
 20
461.8052620185276
 30
0.0
 10
-654.1117061044001
 20
463.2257030161101
 30
0.0
 10
-655.4698658413909
 20
463.9324400000021
 30
0.0
  0
SPLINE
  5
CD
330
1F
100
AcDbEntity
  8
0
  6
Continuous
 62
     7
370
    25
100
AcDbSpline
210
0.0
220
0.0
230
1.0
 70
     8
 71
     3
 72
    12
 73
     8
 74
     0
 42
0.00000001
 43
0.00000001
 40
0.0
 40
0.0
 40
0.0
 40
0.0
 40
0.1996899057534923
 40
0.3995341949320771
 40
0.5995335320061828
 40
0.7996885799020617
 40
1.0
 40
1.0
 40
1.0
 40
1.0
 10
-655.469865841391
 20
478.9324400000022
 30
0.0
 10
-654.3671094422436
 20
478.0058051795752
 30
0.0
 10
-652.1607440855316
 20
476.1518191426828
 30
0.0
 10
-648.8563359566989
 20
473.3621330032323
 30
0.0
 10
-645.5541881239055
 20
470.5645823805594
 30
0.0
 10
-642.2542995876148
 20
467.7591583671557
 30
0.0
 10
-640.0578149776215
 20
465.8831061116018
 30
0.0
 10
-638.9591438363024
 20
464.9447137079371
 30
0.0
  0
SPLINE
  5
CF
330
1F
100
AcDbEntity
  8
0
  6
Continuous
 62
     7
370
    25
100
AcDbSpline
210
0.0
220
0.0
230
1.0
 70
     8
 71
     3
 72
    11
 73
     7
 74
     0
 42
0.00000001
 43
0.00000001
 40
0.0
 40
0.0
 40
0.0
 40
0.0
 40
0.2527638071042443
 40
0.503684336240107
 40
0.7527626910882411
 40
0.9999999999999999
 40
0.9999999999999999
 40
0.9999999999999999
 40
0.9999999999999999
 10
-636.7811498106316
 20
482.1174854237785
 30
0.0
 10
-638.3527939428265
 20
482.9500762033594
 30
0.0
 10
-641.4846210054079
 20
484.6091861011617
 30
0.0
 10
-646.171779350753
 20
487.0762490778106
 30
0.0
 10
-650.8289528753488
 20
489.5167722892944
 30
0.0
 10
-653.9267251711369
 20
491.1292111703541
 30
0.0
 10
-655.4698658413909
 20
491.9324400000021
 30
0.0
  0
SPLINE
  5
D1
330
1F
100
AcDbEntity
  8
0
  6
Continuous
 62
     7
370
    25
100
AcDbSpline
210
0.0
220
0.0
230
1.0
 70
     8
 71
     3
 72
    12
 73
     8
 74
     0
 42
0.00000001
 43
0.00000001
 40
0.0
 40
0.0
 40
0.0
 40
0.0
 40
0.1979965107238472
 40
0.3969939229001327
 40
0.5969930860410146
 40
0.7979948369572814
 40
1.0
 40
1.0
 40
1.0
 40
1.0
 10
-655.4698658413909
 20
507.9324400000023
 30
0.0
 10
-654.2316585442516
 20
506.8918190628581
 30
0.0
 10
-651.748984630162
 20
504.8053166968385
 30
0.0
 10
-648.0238429713708
 20
501.6578555890326
 30
0.0
 10
-644.286103081009
 20
498.487286940843
 30
0.0
 10
-640.5357905029907
 20
495.293566209087
 30
0.0
 10
-638.0347723977802
 20
493.152754500894
 30
0.0
 10
-636.7811498106317
 20
492.0796835356617
 30
0.0
  0
SPLINE
  5
D3
330
1F
100
AcDbEntity
  8
0
  6
Continuous
 62
     7
370
    25
100
AcDbSpline
210
0.0
220
0.0
230
1.0
 70
     8
 71
     3
 72
    12
 73
     8
 74
     0
 42
0.00000001
 43
0.00000001
 40
0.0
 40
0.0
 40
0.0
 40
0.0
 40
0.2059045025454601
 40
0.4088560302882612
 40
0.6088552906669433
 40
0.8059030229176453
 40
1.0
 40
1.0
 40
1.0
 40
1.0
 10
-634.6083334796898
 20
509.9627848853993
 30
0.0
 10
-636.0370518459287
 20
510.721582976536
 30
0.0
 10
-638.8739986460174
 20
512.2282968730127
 30
0.0
 10
-643.1038517870059
 20
514.4623053807472
 30
0.0
 10
-647.2761457730724
 20
516.6562759979477
 30
0.0
 10
-651.3908249375176
 20
518.8103318133329
 30
0.0
 10
-654.1170409705474
 20
520.2286371205507
 30
0.0
 10
-655.4698658413909
 20
520.9324400000024
 30
0.0
  0
SPLINE
  5
D5
330
1F
100
AcDbEntity
  8
0
  6
Continuous
 62
     7
370
    25
100
AcDbSpline
210
0.0
220
0.0
230
1.0
 70
     8
 71
     3
 72
    13
 73
     9
 74
     0
 42
0.00000001
 43
0.00000001
 40
0.0
 40
0.0
 40
0.0
 40
0.0
 40
0.1637275348998661
 40
0.3286299165711852
 40
0.4947077590695421
 40
0.6619616635037694
 40
0.8303922183910315
 40
1.0
 40
1.0
 40
1.0
 40
1.0
 10
-655.4698658413909
 20
537.9324400000024
 30
0.0
 10
-654.3262931755626
 20
536.9714261206532
 30
0.0
 10
-652.0309419996343
 20
535.0425024903827
 30
0.0
 10
-648.5827996500864
 20
532.1302220698112
 30
0.0
 10
-645.11525949854
 20
529.1910618417592
 30
0.0
 10
-641.6289777562963
 20
526.224243553042
 30
0.0
 10
-638.1233220223289
 20
523.2305073192721
 30
0.0
 10
-635.7827134027021
 20
521.222269261295
 30
0.0
 10
-634.6083334796897
 20
520.2146533633864
 30
0.0
  0
SPLINE
  5
D7
330
1F
100
AcDbEntity
  8
0
  6
Continuous
 62
     7
370
    25
100
AcDbSpline
210
0.0
220
0.0
230
1.0
 70
     8
 71
     3
 72
    12
 73
     8
 74
     0
 42
0.00000001
 43
0.00000001
 40
0.0
 40
0.0
 40
0.0
 40
0.0
 40
0.2051687758157636
 40
0.4077522947207058
 40
0.6077514088090493
 40
0.8051670036398123
 40
1.0
 40
1.0
 40
1.0
 40
1.0
 10
-632.4405935923944
 20
538.8080843470201
 30
0.0
 10
-634.0117929648196
 20
539.6443908804863
 30
0.0
 10
-637.1343935994569
 20
541.3064659538248
 30
0.0
 10
-641.7948824289379
 20
543.7719520874645
 30
0.0
 10
-646.4007253685705
 20
546.1968660351528
 30
0.0
 10
-650.9518653685997
 20
548.5813388560358
 30
0.0
 10
-653.9704906466375
 20
550.152187152122
 30
0.0
 10
-655.469865841391
 20
550.9324400000023
 30
0.0
  0
SPLINE
  5
D9
330
1F
100
AcDbEntity
  8
0
  6
Continuous
 62
     7
370
    25
100
AcDbSpline
210
0.0
220
0.0
230
1.0
 70
     8
 71
     3
 72
    13
 73
     9
 74
     0
 42
0.00000001
 43
0.00000001
 40
0.0
 40
0.0
 40
0.0
 40
0.0
 40
0.1644296330969953
 40
0.3297530904395118
 40
0.4959711228841376
 40
0.6630844692292246
 40
0.831093856462057
 40
1.0
 40
1.0
 40
1.0
 40
1.0
 10
-655.4698658413909
 20
568.9324400000024
 30
0.0
 10
-654.2014568364319
 20
567.8663979302099
 30
0.0
 10
-651.6577438727245
 20
565.7285188847384
 30
0.0
 10
-647.840606692115
 20
562.5025788549808
 30
0.0
 10
-644.009158181448
 20
559.2516962474683
 30
0.0
 10
-640.1641984357475
 20
555.9749227234789
 30
0.0
 10
-636.3049474722595
 20
552.6731692566932
 30
0.0
 10
-633.7309952186312
 20
550.4594359518542
 30
0.0
 10
-632.4405935923941
 20
549.3496231911113
 30
0.0
  0
SPLINE
  5
DB
330
1F
100
AcDbEntity
  8
0
  6
Continuous
 62
     7
370
    25
100
AcDbSpline
210
0.0
220
0.0
230
1.0
 70
     8
 71
     3
 72
    13
 73
     9
 74
     0
 42
0.00000001
 43
0.00000001
 40
0.0
 40
0.0
 40
0.0
 40
0.0
 40
0.1707079815683149
 40
0.3397986496743324
 40
0.5072725820735313
 40
0.6731303734167818
 40
0.8373726359090221
 40
1.0
 40
1.0
 40
1.0
 40
1.0
 10
-630.277830677164
 20
568.653383808641
 30
0.0
 10
-631.7075128233894
 20
569.4162040152032
 30
0.0
 10
-634.55333208906
 20
570.9346173533071
 30
0.0
 10
-638.8069807875844
 20
573.1915708374173
 30
0.0
 10
-643.0238134593922
 20
575.4196622029054
 30
0.0
 10
-647.2043049633821
 20
577.6179968917357
 30
0.0
 10
-651.3479566690825
 20
579.7875294203245
 30
0.0
 10
-654.1004289776592
 20
581.2198285633042
 30
0.0
 10
-655.4698658413909
 20
581.9324400000025
 30
0.0
  0
SPLINE
  5
DD
330
1F
100
AcDbEntity
  8
0
  6
Continuous
 62
     7
370
    25
100
AcDbSpline
210
0.0
220
0.0
230
1.0
 70
     8
 71
     3
 72
    14
 73
    10
 74
     0
 42
0.00000001
 43
0.00000001
 40
0.0
 40
0.0
 40
0.0
 40
0.0
 40
0.1413989908327259
 40
0.2832830953000693
 40
0.4256528813761706
 40
0.5685089112421708
 40
0.7118517413581662
 40
0.8556819225341532
 40
1.0
 40
1.0
 40
1.0
 40
1.0
 10
-655.4698658413909
 20
600.9324400000025
 30
0.0
 10
-654.276028473484
 20
599.9291577075635
 30
0.0
 10
-651.8842579037375
 20
597.9191510477697
 30
0.0
 10
-648.2981626528538
 20
594.8898192363413
 30
0.0
 10
-644.7054262457738
 20
591.843464431423
 30
0.0
 10
-641.1065684578954
 20
588.779466139453
 30
0.0
 10
-637.5015836166264
 20
585.6978358737489
 30
0.0
 10
-633.8899694072711
 20
582.5991542046755
 30
0.0
 10
-631.4832352914531
 20
580.5239513340649
 30
0.0
 10
-630.2778306771639
 20
579.4845930188361
 30
0.0
  0
SPLINE
  5
DF
330
1F
100
AcDbEntity
  8
0
  6
Continuous
 62
     7
370
    25
100
AcDbSpline
210
0.0
220
0.0
230
1.0
 70
     8
 71
     3
 72
    13
 73
     9
 74
     0
 42
0.00000001
 43
0.00000001
 40
0.0
 40
0.0
 40
0.0
 40
0.0
 40
0.1704025272345582
 40
0.3393097950593149
 40
0.5067224760328776
 40
0.672641260888962
 40
0.8370668591883628
 40
1.0
 40
1.0
 40
1.0
 40
1.0
 10
-628.1199469868367
 20
599.4986832702622
 30
0.0
 10
-629.6689811657328
 20
600.3269607552373
 30
0.0
 10
-632.753456955564
 20
601.9762477009194
 30
0.0
 10
-637.3659313176579
 20
604.427762552607
 30
0.0
 10
-641.9421101672175
 20
606.8490613825085
 30
0.0
 10
-646.4825508535663
 20
609.2390961306817
 30
0.0
 10
-650.9866713896698
 20
611.5989802264933
 30
0.0
 10
-653.9800166662354
 20
613.1569877736359
 30
0.0
 10
-655.4698658413909
 20
613.9324400000024
 30
0.0
  0
SPLINE
  5
E1
330
1F
100
AcDbEntity
  8
0
  6
Continuous
 62
     7
370
    25
100
AcDbSpline
210
0.0
220
0.0
230
1.0
 70
     8
 71
     3
 72
    15
 73
    11
 74
     0
 42
0.00000001
 43
0.00000001
 40
0.0
 40
0.0
 40
0.0
 40
0.0
 40
0.1220954509937733
 40
0.2450199001674518
 40
0.3687737949457782
 40
0.4933575738169925
 40
0.618771666564705
 40
0.7450164944924523
 40
0.8720924706411851
 40
1.0
 40
1.0
 40
1.0
 40
1.0
 10
-655.469865841391
 20
633.9324400000025
 30
0.0
 10
-654.3501249161509
 20
632.9914665595569
 30
0.0
 10
-652.1030402992986
 20
631.1031306996895
 30
0.0
 10
-648.7279598012478
 20
628.2527803039836
 30
0.0
 10
-645.3351444212522
 20
625.3772445415754
 30
0.0
 10
-641.9251115620698
 20
622.4759073212659
 30
0.0
 10
-638.4976903872625
 20
619.5489709890593
 30
0.0
 10
-635.0530432096217
 20
616.596246561381
 30
0.0
 10
-631.5906885953566
 20
613.6182910183627
 30
0.0
 10
-629.2793734130614
 20
611.6213097582056
 30
0.0
 10
-628.1199469868366
 20
610.6195628465608
 30
0.0
  0
SPLINE
  5
E5
330
1F
100
AcDbEntity
  8
0
  6
Continuous
 62
     7
370
    25
100
AcDbSpline
210
0.0
220
0.0
230
1.0
 70
     8
 71
     3
 72
    32
 73
    28
 74
     0
 42
0.00000001
 43
0.00000001
 40
0.0
 40
0.0
 40
0.0
 40
0.0
 40
0.124999999999971
 40
0.124999999999971
 40
0.1874999999999667
 40
0.1874999999999667
 40
0.2499999999999624
 40
0.2499999999999624
 40
0.312499999999958
 40
0.312499999999958
 40
0.3749999999999537
 40
0.3749999999999537
 40
0.4999999999999248
 40
0.4999999999999248
 40
0.5624999999999367
 40
0.5624999999999367
 40
0.6249999999999487
 40
0.6249999999999487
 40
0.6874999999999606
 40
0.6874999999999606
 40
0.7499999999999726
 40
0.7499999999999726
 40
0.8124999999999845
 40
0.8124999999999845
 40
0.8749999999999964
 40
0.8749999999999964
 40
1.0
 40
1.0
 40
1.0
 40
1.0
 10
-771.5905353895936
 20
805.9324400000025
 30
0.0
 10
-771.320642006185
 20
805.9324400001426
 30
0.0
 10
-771.0654319415439
 20
805.8799553321836
 30
0.0
 10
-770.7027226646936
 20
805.7293612467839
 30
0.0
 10
-770.5830718400183
 20
805.6651144601251
 30
0.0
 10
-770.3657737619983
 20
805.5189779114643
 30
0.0
 10
-770.2655296989423
 20
805.4362149859958
 30
0.0
 10
-770.0816104465982
 20
805.2515779024019
 30
0.0
 10
-769.9975103662866
 20
805.1486793182214
 30
0.0
 10
-769.853213413107
 20
804.9317793589689
 30
0.0
 10
-769.7920330425235
 20
804.8170616424754
 30
0.0
 10
-769.6419778376338
 20
804.4537729327777
 30
0.0
 10
-769.5904313525664
 20
804.194722535209
 30
0.0
 10
-769.5905876418418
 20
803.8001105581485
 30
0.0
 10
-769.603489787467
 20
803.6705886646113
 30
0.0
 10
-769.6541394863149
 20
803.4154416901064
 30
0.0
 10
-769.6925445532822
 20
803.2884743746066
 30
0.0
 10
-769.7924224971954
 20
803.047086416738
 30
0.0
 10
-769.85358343762
 20
802.9324206060851
 30
0.0
 10
-769.9983096646102
 20
802.7151240541298
 30
0.0
 10
-770.0824171940337
 20
802.6124211074099
 30
0.0
 10
-770.2658168771786
 20
802.4284482343782
 30
0.0
 10
-770.3658642503486
 20
802.3458389500356
 30
0.0
 10
-770.5830294243383
 20
802.1997963492252
 30
0.0
 10
-770.7027226646936
 20
802.1355187532208
 30
0.0
 10
-771.0654319415438
 20
801.9849246678215
 30
0.0
 10
-771.3206420061849
 20
801.9324399998621
 30
0.0
 10
-771.5905353895936
 20
801.9324400000023
 30
0.0
  0
SPLINE
  5
E6
330
1F
100
AcDbEntity
  8
0
  6
Continuous
 62
     7
370
    25
100
AcDbSpline
210
0.0
220
0.0
230
1.0
 70
     8
 71
     3
 72
    32
 73
    28
 74
     0
 42
0.00000001
 43
0.00000001
 40
0.0
 40
0.0
 40
0.0
 40
0.0
 40
0.1250000000000022
 40
0.1250000000000022
 40
0.1875000000000032
 40
0.1875000000000032
 40
0.2500000000000043
 40
0.2500000000000043
 40
0.3125000000000054
 40
0.3125000000000054
 40
0.3750000000000065
 40
0.3750000000000065
 40
0.4999999999999842
 40
0.4999999999999842
 40
0.5624999999999862
 40
0.5624999999999862
 40
0.6249999999999881
 40
0.6249999999999881
 40
0.6874999999999901
 40
0.6874999999999901
 40
0.7499999999999921
 40
0.7499999999999921
 40
0.8124999999999941
 40
0.8124999999999941
 40
0.874999999999996
 40
0.874999999999996
 40
1.0
 40
1.0
 40
1.0
 40
1.0
 10
-771.590526700571
 20
405.9324400000025
 30
0.0
 10
-771.3206333171621
 20
405.9324400001429
 30
0.0
 10
-771.065423252521
 20
405.8799553321838
 30
0.0
 10
-770.7027139756701
 20
405.7293612467847
 30
0.0
 10
-770.5830631509949
 20
405.6651144601257
 30
0.0
 10
-770.3657650729745
 20
405.518977911465
 30
0.0
 10
-770.2655210099185
 20
405.4362149859965
 30
0.0
 10
-770.0816017575744
 20
405.2515779024022
 30
0.0
 10
-769.9975016772626
 20
405.148679318222
 30
0.0
 10
-769.8532047240825
 20
404.9317793589697
 30
0.0
 10
-769.7920243534994
 20
404.8170616424761
 30
0.0
 10
-769.6419691486095
 20
404.4537729327782
 30
0.0
 10
-769.5904226635421
 20
404.1947225352093
 30
0.0
 10
-769.5905789528176
 20
403.8001105581486
 30
0.0
 10
-769.6034810984429
 20
403.6705886646115
 30
0.0
 10
-769.6541307972901
 20
403.4154416901062
 30
0.0
 10
-769.6925358642578
 20
403.2884743746062
 30
0.0
 10
-769.7924138081713
 20
403.0470864167379
 30
0.0
 10
-769.8535747485957
 20
402.9324206060847
 30
0.0
 10
-769.9983009755861
 20
402.7151240541291
 30
0.0
 10
-770.0824085050098
 20
402.6124211074094
 30
0.0
 10
-770.2658081881551
 20
402.428448234378
 30
0.0
 10
-770.3658555613249
 20
402.3458389500352
 30
0.0
 10
-770.5830207353147
 20
402.1997963492246
 30
0.0
 10
-770.7027139756702
 20
402.1355187532204
 30
0.0
 10
-771.0654232525211
 20
401.9849246678211
 30
0.0
 10
-771.3206333171622
 20
401.9324399998623
 30
0.0
 10
-771.590526700571
 20
401.9324400000025
 30
0.0
  0
LINE
  5
E7
330
1F
100
AcDbEntity
  8
0
  6
Continuous
 62
     7
370
    25
100
AcDbLine
 10
-771.5895677418
 20
805.9324397991
 30
0.0
 11
-771.5904611905
 21
805.9324399986
 31
0.0
  0
LINE
  5
E8
330
1F
100
AcDbEntity
  8
0
  6
Continuous
 62
     7
370
    25
100
AcDbLine
 10
-546.6411693749
 20
694.6806399656
 30
0.0
 11
-546.6411693749
 21
717.7184400002
 31
0.0
  0
LINE
  5
E9
330
1F
100
AcDbEntity
  8
0
  6
Continuous
 62
     7
370
    25
100
AcDbLine
 10
-400.954062981
 20
694.6806399656
 30
0.0
 11
-546.6411693749
 21
694.6806399656
 31
0.0
  0
LINE
  5
EA
330
1F
100
AcDbEntity
  8
0
  6
Continuous
 62
     7
370
    25
100
AcDbLine
 10
-400.954062981
 20
778.93244
 30
0.0
 11
-400.954062981
 21
694.6806399656
 31
0.0
  0
LINE
  5
EB
330
1F
100
AcDbEntity
  8
0
  6
Continuous
 62
     7
370
    25
100
AcDbLine
 10
-546.6411693749
 20
778.93244
 30
0.0
 11
-400.954062981
 21
778.93244
 31
0.0
  0
LINE
  5
EC
330
1F
100
AcDbEntity
  8
0
  6
Continuous
 62
     7
370
    25
100
AcDbLine
 10
-546.6411693749
 20
755.8184399147
 30
0.0
 11
-546.6411693749
 21
778.93244
 31
0.0
  0
LINE
  5
ED
330
1F
100
AcDbEntity
  8
0
  6
Continuous
 62
     7
370
    25
100
AcDbLine
 10
-592.8958980541
 20
755.8184399147
 30
0.0
 11
-546.6411693749
 21
755.8184399147
 31
0.0
  0
LINE
  5
EE
330
1F
100
AcDbEntity
  8
0
  6
Continuous
 62
     7
370
    25
100
AcDbLine
 10
-592.8958980541
 20
717.7184400002
 30
0.0
 11
-592.8958980541
 21
755.8184399147
 31
0.0
  0
LINE
  5
EF
330
1F
100
AcDbEntity
  8
0
  6
Continuous
 62
     7
370
    25
100
AcDbLine
 10
-546.6411693749
 20
717.7184400002
 30
0.0
 11
-592.8958980541
 21
717.7184400002
 31
0.0
  0
LINE
  5
F0
330
1F
100
AcDbEntity
  8
0
  6
Continuous
 62
     7
370
    25
100
AcDbLine
 10
-304.2596894023
 20
404.5815870389
 30
0.0
 11
-304.2596894023
 21
413.6747740525
 31
0.0
  0
LINE
  5
F1
330
1F
100
AcDbEntity
  8
0
  6
Continuous
 62
     7
370
    25
100
AcDbLine
 10
-292.1209027835
 20
410.9324399957
 30
0.0
 11
-292.1209027835
 21
423.9324399965
 31
0.0
  0
LINE
  5
F2
330
1F
100
AcDbEntity
  8
0
  6
Continuous
 62
     7
370
    25
100
AcDbLine
 10
-306.4483499764
 20
429.4268865005
 30
0.0
 11
-306.4483499764
 21
438.8097438802
 31
0.0
  0
LINE
  5
F3
330
1F
100
AcDbEntity
  8
0
  6
Continuous
 62
     7
370
    25
100
AcDbLine
 10
-292.1209027835
 20
436.9324399957
 30
0.0
 11
-292.1209027835
 21
450.9324399965
 31
0.0
  0
LINE
  5
F4
330
1F
100
AcDbEntity
  8
0
  6
Continuous
 62
     7
370
    25
100
AcDbLine
 10
-308.6316247845
 20
455.2721859622
 30
0.0
 11
-308.6316247845
 21
464.9447137079
 31
0.0
  0
LINE
  5
F5
330
1F
100
AcDbEntity
  8
0
  6
Continuous
 62
     7
370
    25
100
AcDbLine
 10
-292.1209027835
 20
463.9324399957
 30
0.0
 11
-292.1209027835
 21
478.9324399965
 31
0.0
  0
LINE
  5
F6
330
1F
100
AcDbEntity
  8
0
  6
Continuous
 62
     7
370
    25
100
AcDbLine
 10
-310.8096188101
 20
482.1174854238
 30
0.0
 11
-310.8096188101
 21
492.0796835357
 31
0.0
  0
LINE
  5
F7
330
1F
100
AcDbEntity
  8
0
  6
Continuous
 62
     7
370
    25
100
AcDbLine
 10
-292.1209027876
 20
507.9324399998
 30
0.0
 11
-292.1209027876
 21
491.9324399957
 31
0.0
  0
LINE
  5
F8
330
1F
100
AcDbEntity
  8
0
  6
Continuous
 62
     7
370
    25
100
AcDbLine
 10
-312.9824351411
 20
509.9627848854
 30
0.0
 11
-312.9824351411
 21
520.2146533634
 31
0.0
  0
LINE
  5
F9
330
1F
100
AcDbEntity
  8
0
  6
Continuous
 62
     7
370
    25
100
AcDbLine
 10
-292.1209027876
 20
537.9324399998
 30
0.0
 11
-292.1209027876
 21
520.9324399957
 31
0.0
  0
LINE
  5
FA
330
1F
100
AcDbEntity
  8
0
  6
Continuous
 62
     7
370
    25
100
AcDbLine
 10
-315.1501750284
 20
538.808084347
 30
0.0
 11
-315.1501750284
 21
549.3496231911
 31
0.0
  0
LINE
  5
FB
330
1F
100
AcDbEntity
  8
0
  6
Continuous
 62
     7
370
    25
100
AcDbLine
 10
-292.1209027876
 20
568.9324399998
 30
0.0
 11
-292.1209027876
 21
550.9324399957
 31
0.0
  0
LINE
  5
FC
330
1F
100
AcDbEntity
  8
0
  6
Continuous
 62
     7
370
    25
100
AcDbLine
 10
-317.3129379436
 20
568.6533838086
 30
0.0
 11
-317.3129379436
 21
579.4845930188
 31
0.0
  0
LINE
  5
FD
330
1F
100
AcDbEntity
  8
0
  6
Continuous
 62
     7
370
    25
100
AcDbLine
 10
-292.1209027876
 20
600.9324399998
 30
0.0
 11
-292.1209027876
 21
581.9324399957
 31
0.0
  0
LINE
  5
FE
330
1F
100
AcDbEntity
  8
0
  6
Continuous
 62
     7
370
    25
100
AcDbLine
 10
-319.470821634
 20
599.4986832703
 30
0.0
 11
-319.470821634
 21
610.6195628466
 31
0.0
  0
LINE
  5
FF
330
1F
100
AcDbEntity
  8
0
  6
Continuous
 62
     7
370
    25
100
AcDbLine
 10
-292.1209027876
 20
633.9324399998
 30
0.0
 11
-292.1209027876
 21
613.9324399957
 31
0.0
  0
LINE
  5
100
330
1F
100
AcDbEntity
  8
0
  6
Continuous
 62
     7
370
    25
100
AcDbLine
 10
-321.6239221753
 20
631.3439827319
 30
0.0
 11
-321.6239221753
 21
642.7545326743
 31
0.0
  0
LINE
  5
101
330
1F
100
AcDbEntity
  8
0
  6
Continuous
 62
     7
370
    25
100
AcDbLine
 10
-292.1209027835
 20
646.9324399957
 30
0.0
 11
-292.1209027835
 21
667.9324399965
 31
0.0
  0
LINE
  5
102
330
1F
100
AcDbEntity
  8
0
  6
Continuous
 62
     7
370
    25
100
AcDbLine
 10
-323.7723340235
 20
664.1892821935
 30
0.0
 11
-323.7723340235
 21
675.889502502
 31
0.0
  0
LINE
  5
103
330
1F
100
AcDbEntity
  8
0
  6
Continuous
 62
     7
370
    25
100
AcDbLine
 10
-292.1209027876
 20
702.9324399998
 30
0.0
 11
-292.1209027876
 21
680.9324399957
 31
0.0
  0
LINE
  5
104
330
1F
100
AcDbEntity
  8
0
  6
Continuous
 62
     7
370
    25
100
AcDbLine
 10
-325.916150064
 20
698.0345816551
 30
0.0
 11
-325.916150064
 21
710.0244723297
 31
0.0
  0
LINE
  5
105
330
1F
100
AcDbEntity
  8
0
  6
Continuous
 62
     7
370
    25
100
AcDbLine
 10
-292.1209027876
 20
738.9324399998
 30
0.0
 11
-292.1209027876
 21
715.9324399957
 31
0.0
  0
LINE
  5
106
330
1F
100
AcDbEntity
  8
0
  6
Continuous
 62
     7
370
    25
100
AcDbLine
 10
-328.0554616596
 20
732.8798811167
 30
0.0
 11
-328.0554616596
 21
745.1594421575
 31
0.0
  0
LINE
  5
107
330
1F
100
AcDbEntity
  8
0
  6
Continuous
 62
     7
370
    25
100
AcDbLine
 10
-292.1209027876
 20
775.9324399998
 30
0.0
 11
-292.1209027876
 21
751.9324399957
 31
0.0
  0
LINE
  5
108
330
1F
100
AcDbEntity
  8
0
  6
Continuous
 62
     7
370
    25
100
AcDbLine
 10
-330.1903586968
 20
768.7251805784
 30
0.0
 11
-330.1903586968
 21
781.2944119852
 31
0.0
  0
LINE
  5
109
330
1F
100
AcDbEntity
  8
0
  6
Continuous
 62
     7
370
    25
100
AcDbLine
 10
-292.1209027835
 20
788.9324399957
 30
0.0
 11
-292.1209027835
 21
813.9324399965
 31
0.0
  0
LINE
  5
10A
330
1F
100
AcDbEntity
  8
0
  6
Continuous
 62
     7
370
    25
100
AcDbLine
 10
-625.9668464455
 20
642.7545326743
 30
0.0
 11
-625.9668464455
 21
631.3439827319
 31
0.0
  0
LINE
  5
10B
330
1F
100
AcDbEntity
  8
0
  6
Continuous
 62
     7
370
    25
100
AcDbLine
 10
-655.4698658497
 20
667.93244
 30
0.0
 11
-655.4698658414
 21
646.93244
 31
0.0
  0
LINE
  5
10C
330
1F
100
AcDbEntity
  8
0
  6
Continuous
 62
     7
370
    25
100
AcDbLine
 10
-623.8184345973
 20
675.889502502
 30
0.0
 11
-623.8184345973
 21
664.1892821935
 31
0.0
  0
LINE
  5
10D
330
1F
100
AcDbEntity
  8
0
  6
Continuous
 62
     7
370
    25
100
AcDbLine
 10
-655.4698658497
 20
702.93244
 30
0.0
 11
-655.4698658414
 21
680.93244
 31
0.0
  0
LINE
  5
10E
330
1F
100
AcDbEntity
  8
0
  6
Continuous
 62
     7
370
    25
100
AcDbLine
 10
-621.6746185568
 20
710.0244723297
 30
0.0
 11
-621.6746185568
 21
698.0345816551
 31
0.0
  0
LINE
  5
10F
330
1F
100
AcDbEntity
  8
0
  6
Continuous
 62
     7
370
    25
100
AcDbLine
 10
-655.4698658497
 20
738.93244
 30
0.0
 11
-655.4698658414
 21
715.93244
 31
0.0
  0
LINE
  5
110
330
1F
100
AcDbEntity
  8
0
  6
Continuous
 62
     7
370
    25
100
AcDbLine
 10
-619.5353069612
 20
745.1594421575
 30
0.0
 11
-619.5353069612
 21
732.8798811167
 31
0.0
  0
LINE
  5
111
330
1F
100
AcDbEntity
  8
0
  6
Continuous
 62
     7
370
    25
100
AcDbLine
 10
-655.4698658497
 20
775.93244
 30
0.0
 11
-655.4698658414
 21
751.93244
 31
0.0
  0
LINE
  5
112
330
1F
100
AcDbEntity
  8
0
  6
Continuous
 62
     7
370
    25
100
AcDbLine
 10
-617.400409924
 20
781.2944119852
 30
0.0
 11
-617.400409924
 21
768.7251805784
 31
0.0
  0
LINE
  5
113
330
1F
100
AcDbEntity
  8
0
  6
Continuous
 62
     7
370
    25
100
AcDbLine
 10
-655.4698658497
 20
813.93244
 30
0.0
 11
-655.4698658414
 21
788.93244
 31
0.0
  0
LINE
  5
114
330
1F
100
AcDbEntity
  8
0
  6
Continuous
 62
     7
370
    25
100
AcDbLine
 10
-801.5905266995
 20
828.93244
 30
0.0
 11
-801.5905266995
 21
378.93244
 31
0.0
  0
LINE
  5
115
330
1F
100
AcDbEntity
  8
0
  6
Continuous
 62
     7
370
    25
100
AcDbLine
 10
-145.9999999984
 20
378.93244
 30
0.0
 11
-145.9999999984
 21
828.93244
 31
0.0
  0
LINE
  5
116
330
1F
100
AcDbEntity
  8
0
  6
Continuous
 62
     7
370
    25
100
AcDbLine
 10
-643.3310792185
 20
413.6747740525
 30
0.0
 11
-643.3310792185
 21
404.5815870389
 31
0.0
  0
LINE
  5
117
330
1F
100
AcDbEntity
  8
0
  6
Continuous
 62
     7
370
    25
100
AcDbLine
 10
-655.4698658497
 20
423.93244
 30
0.0
 11
-655.4698658414
 21
410.93244
 31
0.0
  0
LINE
  5
118
330
1F
100
AcDbEntity
  8
0
  6
Continuous
 62
     7
370
    25
100
AcDbLine
 10
-641.1424186444
 20
438.8097438802
 30
0.0
 11
-641.1424186444
 21
429.4268865005
 31
0.0
  0
LINE
  5
119
330
1F
100
AcDbEntity
  8
0
  6
Continuous
 62
     7
370
    25
100
AcDbLine
 10
-655.4698658497
 20
450.93244
 30
0.0
 11
-655.4698658414
 21
436.93244
 31
0.0
  0
LINE
  5
11A
330
1F
100
AcDbEntity
  8
0
  6
Continuous
 62
     7
370
    25
100
AcDbLine
 10
-638.9591438363
 20
464.9447137079
 30
0.0
 11
-638.9591438363
 21
455.2721859622
 31
0.0
  0
LINE
  5
11B
330
1F
100
AcDbEntity
  8
0
  6
Continuous
 62
     7
370
    25
100
AcDbLine
 10
-655.4698658497
 20
478.93244
 30
0.0
 11
-655.4698658414
 21
463.93244
 31
0.0
  0
LINE
  5
11C
330
1F
100
AcDbEntity
  8
0
  6
Continuous
 62
     7
370
    25
100
AcDbLine
 10
-636.7811498106
 20
492.0796835357
 30
0.0
 11
-636.7811498106
 21
482.1174854238
 31
0.0
  0
LINE
  5
11D
330
1F
100
AcDbEntity
  8
0
  6
Continuous
 62
     7
370
    25
100
AcDbLine
 10
-655.4698658497
 20
507.93244
 30
0.0
 11
-655.4698658414
 21
491.93244
 31
0.0
  0
LINE
  5
11E
330
1F
100
AcDbEntity
  8
0
  6
Continuous
 62
     7
370
    25
100
AcDbLine
 10
-634.6083334797
 20
520.2146533634
 30
0.0
 11
-634.6083334797
 21
509.9627848854
 31
0.0
  0
LINE
  5
11F
330
1F
100
AcDbEntity
  8
0
  6
Continuous
 62
     7
370
    25
100
AcDbLine
 10
-655.4698658497
 20
537.93244
 30
0.0
 11
-655.4698658414
 21
520.93244
 31
0.0
  0
LINE
  5
120
330
1F
100
AcDbEntity
  8
0
  6
Continuous
 62
     7
370
    25
100
AcDbLine
 10
-632.4405935924
 20
549.3496231911
 30
0.0
 11
-632.4405935924
 21
538.808084347
 31
0.0
  0
LINE
  5
121
330
1F
100
AcDbEntity
  8
0
  6
Continuous
 62
     7
370
    25
100
AcDbLine
 10
-655.4698658497
 20
568.93244
 30
0.0
 11
-655.4698658414
 21
550.93244
 31
0.0
  0
LINE
  5
122
330
1F
100
AcDbEntity
  8
0
  6
Continuous
 62
     7
370
    25
100
AcDbLine
 10
-630.2778306772
 20
579.4845930188
 30
0.0
 11
-630.2778306772
 21
568.6533838086
 31
0.0
  0
LINE
  5
123
330
1F
100
AcDbEntity
  8
0
  6
Continuous
 62
     7
370
    25
100
AcDbLine
 10
-655.4698658497
 20
600.93244
 30
0.0
 11
-655.4698658414
 21
581.93244
 31
0.0
  0
LINE
  5
124
330
1F
100
AcDbEntity
  8
0
  6
Continuous
 62
     7
370
    25
100
AcDbLine
 10
-628.1199469868
 20
610.6195628466
 30
0.0
 11
-628.1199469868
 21
599.4986832703
 31
0.0
  0
LINE
  5
125
330
1F
100
AcDbEntity
  8
0
  6
Continuous
 62
     7
370
    25
100
AcDbLine
 10
-655.4698658497
 20
633.93244
 30
0.0
 11
-655.4698658414
 21
613.93244
 31
0.0
  0
LINE
  5
126
330
1F
100
AcDbEntity
  8
0
  6
Continuous
 62
     7
370
    25
100
AcDbLine
 10
-145.9999999984
 20
828.93244
 30
0.0
 11
-801.5905266995
 21
828.93244
 31
0.0
  0
LINE
  5
127
330
1F
100
AcDbEntity
  8
0
  6
Continuous
 62
     7
370
    25
100
AcDbLine
 10
-801.5905266995
 20
378.93244
 30
0.0
 11
-145.9999999984
 21
378.93244
 31
0.0
  0
ARC
  5
128
330
1F
100
AcDbEntity
  8
0
  6
Continuous
 62
     7
370
    25
100
AcDbCircle
 10
-771.5903869885
 20
403.93244
 30
0.0
 40
2.00000000000017
100
AcDbArc
 50
269.99799872
 51
90.0020012801
  0
ARC
  5
129
330
1F
100
AcDbEntity
  8
0
  6
Continuous
 62
     7
370
    25
100
AcDbCircle
 10
-771.5905266995
 20
403.93244
 30
0.0
 40
2.000000000000005
100
AcDbArc
 50
89.9979988555
 51
270.0020011446
  0
ARC
  5
12A
330
1F
100
AcDbEntity
  8
0
  6
Continuous
 62
     7
370
    25
100
AcDbCircle
 10
-771.5905353885
 20
803.93244
 30
0.0
 40
2.000000000000043
100
AcDbArc
 50
89.9978743837
 51
270.0021256161
  0
ARC
  5
12B
330
1F
100
AcDbEntity
  8
0
  6
Continuous
 62
     7
370
    25
100
AcDbCircle
 10
-771.5903869884
 20
803.93244
 30
0.0
 40
1.999999999998262
100
AcDbArc
 50
270.0234696888
 51
89.9765303112
  0
MTEXT
  5
12D
330
1F
100
AcDbEntity
  8
0
  6
Continuous
 62
     7
100
AcDbMText
 10
-801.5905266995
 20
377.9128736083
 30
0.0
 40
4.83362
 41
0.0
 71
     1
 72
     1
  1
SOLIDWORKS Educational Product.
  7
SLDTEXTSTYLE0
 73
     1
 44
1.0
  0
MTEXT
  5
12E
330
1F
100
AcDbEntity
  8
0
  6
Continuous
 62
     7
100
AcDbMText
 10
-801.5905266995
 20
370.6624436083
 30
0.0
 40
4.83362
 41
0.0
 71
     1
 72
     1
  1
For Instructional Use Only.
  7
SLDTEXTSTYLE0
 73
     1
 44
1.0
  0
ENDSEC
  0
SECTION
  2
OBJECTS
  0
DICTIONARY
  5
C
330
0
100
AcDbDictionary
281
     1
  3
ACAD_GROUP
350
D
  3
ACAD_LAYOUT
350
1A
  3
ACAD_MLINESTYLE
350
17
  3
ACAD_PLOTSETTINGS
350
19
  3
ACAD_PLOTSTYLENAME
350
E
  3
ACAD_SCALELIST
350
47
  3
DWGPROPS
350
12F
  0
DICTIONARY
  5
D
102
{ACAD_REACTORS
330
C
102
}
330
C
100
AcDbDictionary
281
     1
  0
DICTIONARY
  5
1A
102
{ACAD_REACTORS
330
C
102
}
330
C
100
AcDbDictionary
281
     1
  3
Layout1
350
1E
  3
Layout2
350
26
  3
Model
350
22
  0
DICTIONARY
  5
17
102
{ACAD_REACTORS
330
C
102
}
330
C
100
AcDbDictionary
281
     1
  3
Standard
350
18
  0
DICTIONARY
  5
19
102
{ACAD_REACTORS
330
C
102
}
330
C
100
AcDbDictionary
281
     1
  0
ACDBDICTIONARYWDFLT
  5
E
102
{ACAD_REACTORS
330
C
102
}
330
C
100
AcDbDictionary
281
     1
  3
Normal
350
F
100
AcDbDictionaryWithDefault
340
F
  0
DICTIONARY
  5
47
102
{ACAD_REACTORS
330
C
102
}
330
C
100
AcDbDictionary
281
     1
  3
A0
350
48
  3
A1
350
49
  3
A2
350
4A
  3
A3
350
4B
  3
A4
350
4C
  3
A5
350
4D
  3
A6
350
4E
  3
A7
350
4F
  3
A8
350
50
  3
A9
350
51
  3
B0
350
52
  3
B1
350
53
  3
B2
350
54
  3
B3
350
55
  3
B4
350
56
  3
B5
350
57
  3
B6
350
58
  0
XRECORD
  5
12F
102
{ACAD_REACTORS
330
C
102
}
330
C
100
AcDbXrecord
280
     1
  1
DWGPROPS COOKIE
  2

  3

  4

  6

  7

  8
steve
  9

300
=
301
=
302
=
303
=
304
=
305
=
306
=
307
=
308
=
309
=
 40
0.0
 41
2460264.477378171
 42
2460264.47744765
  1

 90
        0
  0
LAYOUT
  5
1E
102
{ACAD_REACTORS
330
1A
102
}
330
1A
100
AcDbPlotSettings
  1

  2
none_device
  4

  6

 40
0.0
 41
0.0
 42
0.0
 43
0.0
 44
0.0
 45
0.0
 46
0.0
 47
0.0
 48
0.0
 49
0.0
140
0.0
141
0.0
142
1.0
143
1.0
 70
   688
 72
     1
 73
     0
 74
     5
  7

 75
    16
147
1.0
148
0.0
149
0.0
100
AcDbLayout
  1
Layout1
 70
     1
 71
     1
 10
0.0
 20
0.0
 11
420.0
 21
297.0
 12
0.0
 22
0.0
 32
0.0
 14
1.0000000000E+20
 24
1.0000000000E+20
 34
1.0000000000E+20
 15
-1.0000000000E+20
 25
-1.0000000000E+20
 35
-1.0000000000E+20
146
0.0
 13
0.0
 23
0.0
 33
0.0
 16
1.0
 26
0.0
 36
0.0
 17
0.0
 27
1.0
 37
0.0
 76
     0
330
1B
  0
LAYOUT
  5
26
102
{ACAD_REACTORS
330
1A
102
}
330
1A
100
AcDbPlotSettings
  1

  2
none_device
  4

  6

 40
0.0
 41
0.0
 42
0.0
 43
0.0
 44
0.0
 45
0.0
 46
0.0
 47
0.0
 48
0.0
 49
0.0
140
0.0
141
0.0
142
1.0
143
1.0
 70
   688
 72
     1
 73
     0
 74
     5
  7

 75
    16
147
1.0
148
0.0
149
0.0
100
AcDbLayout
  1
Layout2
 70
     1
 71
     2
 10
0.0
 20
0.0
 11
0.0
 21
0.0
 12
0.0
 22
0.0
 32
0.0
 14
0.0
 24
0.0
 34
0.0
 15
0.0
 25
0.0
 35
0.0
146
0.0
 13
0.0
 23
0.0
 33
0.0
 16
1.0
 26
0.0
 36
0.0
 17
0.0
 27
1.0
 37
0.0
 76
     0
330
23
  0
LAYOUT
  5
22
102
{ACAD_REACTORS
330
1A
102
}
330
1A
100
AcDbPlotSettings
  1

  2
none_device
  4
ANSI_A_(11.00_x_8.50_Inches)
  6

 40
6.35
 41
19.05
 42
6.35000508
 43
19.05000254
 44
279.4
 45
215.9
 46
333.2531493151
 47
-165.9104808223
 48
0.0
 49
0.0
140
0.0
141
0.0
142
0.0166109783
143
1.0
 70
  1696
 72
     0
 73
     0
 74
     0
  7

 75
     0
147
0.0179189148
148
-1300.4909072572
149
0.0
100
AcDbLayout
  1
Model
 70
     1
 71
     0
 10
0.0
 20
0.0
 11
420.0
 21
297.0
 12
0.0
 22
0.0
 32
0.0
 14
-801.5905266995
 24
378.93244
 34
0.0
 15
-145.9999999984
 25
828.93244
 35
0.0
146
0.0
 13
0.0
 23
0.0
 33
0.0
 16
1.0
 26
0.0
 36
0.0
 17
0.0
 27
1.0
 37
0.0
 76
     0
330
1F
331
29
  0
MLINESTYLE
  5
18
102
{ACAD_REACTORS
330
17
102
}
330
17
100
AcDbMlineStyle
  2
Standard
 70
     0
  3

 62
   256
 51
90.0
 52
90.0
 71
     2
 49
0.5
 62
   256
  6
BYLAYER
 49
-0.5
 62
   256
  6
BYLAYER
  0
ACDBPLACEHOLDER
  5
F
102
{ACAD_REACTORS
330
E
102
}
330
E
  0
SCALE
  5
48
102
{ACAD_REACTORS
330
47
102
}
330
47
100
AcDbScale
 70
     0
300
1:1
140
1.0
141
1.0
290
     1
  0
SCALE
  5
49
102
{ACAD_REACTORS
330
47
102
}
330
47
100
AcDbScale
 70
     0
300
1:2
140
1.0
141
2.0
290
     0
  0
SCALE
  5
4A
102
{ACAD_REACTORS
330
47
102
}
330
47
100
AcDbScale
 70
     0
300
1:4
140
1.0
141
4.0
290
     0
  0
SCALE
  5
4B
102
{ACAD_REACTORS
330
47
102
}
330
47
100
AcDbScale
 70
     0
300
1:5
140
1.0
141
5.0
290
     0
  0
SCALE
  5
4C
102
{ACAD_REACTORS
330
47
102
}
330
47
100
AcDbScale
 70
     0
300
1:8
140
1.0
141
8.0
290
     0
  0
SCALE
  5
4D
102
{ACAD_REACTORS
330
47
102
}
330
47
100
AcDbScale
 70
     0
300
1:10
140
1.0
141
10.0
290
     0
  0
SCALE
  5
4E
102
{ACAD_REACTORS
330
47
102
}
330
47
100
AcDbScale
 70
     0
300
1:16
140
1.0
141
16.0
290
     0
  0
SCALE
  5
4F
102
{ACAD_REACTORS
330
47
102
}
330
47
100
AcDbScale
 70
     0
300
1:20
140
1.0
141
20.0
290
     0
  0
SCALE
  5
50
102
{ACAD_REACTORS
330
47
102
}
330
47
100
AcDbScale
 70
     0
300
1:30
140
1.0
141
30.0
290
     0
  0
SCALE
  5
51
102
{ACAD_REACTORS
330
47
102
}
330
47
100
AcDbScale
 70
     0
300
1:40
140
1.0
141
40.0
290
     0
  0
SCALE
  5
52
102
{ACAD_REACTORS
330
47
102
}
330
47
100
AcDbScale
 70
     0
300
1:50
140
1.0
141
50.0
290
     0
  0
SCALE
  5
53
102
{ACAD_REACTORS
330
47
102
}
330
47
100
AcDbScale
 70
     0
300
1:100
140
1.0
141
100.0
290
     0
  0
SCALE
  5
54
102
{ACAD_REACTORS
330
47
102
}
330
47
100
AcDbScale
 70
     0
300
2:1
140
2.0
141
1.0
290
     0
  0
SCALE
  5
55
102
{ACAD_REACTORS
330
47
102
}
330
47
100
AcDbScale
 70
     0
300
4:1
140
4.0
141
1.0
290
     0
  0
SCALE
  5
56
102
{ACAD_REACTORS
330
47
102
}
330
47
100
AcDbScale
 70
     0
300
8:1
140
8.0
141
1.0
290
     0
  0
SCALE
  5
57
102
{ACAD_REACTORS
330
47
102
}
330
47
100
AcDbScale
 70
     0
300
10:1
140
10.0
141
1.0
290
     0
  0
SCALE
  5
58
102
{ACAD_REACTORS
330
47
102
}
330
47
100
AcDbScale
 70
     0
300
100:1
140
100.0
141
1.0
290
     0
  0
ENDSEC
  0
EOF
